<?xml version="1.0" encoding="UTF-8"?>
<svg id="cai-logo" xmlns="http://www.w3.org/2000/svg" xmlns:xlink="http://www.w3.org/1999/xlink" viewBox="0 0 339.81 76.15" role="img" aria-label="Conflavoro AI">
  <title>Conflavoro AI</title>
  <defs>
    <style>
      .cls-1 { fill: url(#orange-grad-3); }
      .cls-2 { fill: url(#orange-grad-2); }
      .cls-3 { fill: url(#orange-grad-1); }
      .cls-ink { fill: #1A1614; }
    </style>
    <radialGradient id="orange-grad-1" cx="328.05" cy="12.04" fx="328.05" fy="12.04" r="149.64" gradientUnits="userSpaceOnUse">
      <stop offset=".44" stop-color="#FF6B1A"/>
      <stop offset="1" stop-color="#1A1614"/>
    </radialGradient>
    <radialGradient id="orange-grad-2" cx="328.05" fx="328.05" xlink:href="#orange-grad-1"/>
    <radialGradient id="orange-grad-3" cx="328.05" fx="328.05" r="149.64" xlink:href="#orange-grad-1"/>
  </defs>
  <g>
    <g>
      <g>
        <!-- Lettering "Conflavoro" (ink) -->
        <g class="cls-ink">
          <polygon points="132.78 44.15 124.73 32.17 120.71 32.17 132.79 50.07 144.83 32.17 140.85 32.17 132.78 44.15"/>
          <path d="M207.72,32.17h-5.79c-4.86,0-8.81,3.94-8.81,8.81v.23c0,4.86,3.94,8.81,8.81,8.81h5.79c4.86,0,8.81-3.94,8.81-8.81v-.23c0-4.86-3.94-8.81-8.81-8.81ZM213.22,41.21c0,3.03-2.47,5.5-5.5,5.5h-5.79c-3.03,0-5.5-2.47-5.5-5.5v-.23c0-3.03,2.47-5.5,5.5-5.5h5.79c3.03,0,5.5,2.47,5.5,5.5v.23Z"/>
          <path d="M159.29,32.16h-5.57c-4.93,0-8.93,4-8.93,8.93s4,8.93,8.93,8.93h5.57c4.93,0,8.93-4,8.93-8.93s-4-8.93-8.93-8.93ZM159.29,46.71h-5.57c-3.1,0-5.62-2.52-5.62-5.62s2.52-5.62,5.62-5.62h5.57c3.1,0,5.62,2.52,5.62,5.62s-2.52,5.62-5.62,5.62Z"/>
          <polygon points="89.13 32.17 85.82 32.17 85.82 50.07 101.32 50.07 101.32 46.76 89.13 46.76 89.13 32.17"/>
          <polygon points="67.58 50.01 70.89 50.01 70.89 42.74 82.75 42.74 82.75 39.43 70.89 39.43 70.89 35.47 83.08 35.47 83.08 32.16 67.58 32.16 67.58 50.01"/>
          <path d="M191.16,38.87c0-3.69-3-6.7-6.7-6.7h-13.94v17.83h3.31v-4.44h8.28l4.44,4.44h4.68l-4.78-4.78c2.72-.85,4.71-3.36,4.71-6.36ZM173.83,42.27v-6.78h10.63c1.87,0,3.39,1.52,3.39,3.39s-1.52,3.39-3.39,3.39h-10.63Z"/>
          <path d="M0,41.09c0,4.93,3.99,8.92,8.92,8.92h10.15v-3.31h-10.15c-3.09,0-5.61-2.52-5.61-5.61s2.52-5.61,5.61-5.61h10.15v-3.31h-10.15c-4.93,0-8.92,3.99-8.92,8.92Z"/>
          <path d="M35.66,32.17h-5.8c-4.86,0-8.81,3.94-8.81,8.81v.23c0,4.86,3.94,8.81,8.81,8.81h5.8c4.86,0,8.81-3.94,8.81-8.81v-.23c0-4.86-3.94-8.81-8.81-8.81ZM41.17,41.21c0,3.03-2.47,5.5-5.5,5.5h-5.8c-3.03,0-5.5-2.47-5.5-5.5v-.23c0-3.03,2.47-5.5,5.5-5.5h5.8c3.03,0,5.5,2.47,5.5,5.5v.23Z"/>
          <path d="M103.1,50.07h3.98l3.05-4.51h10.05l3.06,4.51h4.02l-12.12-17.9-12.04,17.9ZM117.96,42.25h-5.6l2.8-4.16,2.8,4.16Z"/>
        </g>
        <polygon class="cls-ink" points="61.12 32.17 61.12 43.28 46.83 32.18 46.83 50.05 50.14 50.05 50.14 38.92 64.43 50.05 64.43 32.17 61.12 32.17"/>
      </g>
      <!-- Sparkle decorativo (ink) -->
      <path class="cls-ink" d="M327.49,0l1.05,3.49c1.17,3.87,4.15,6.94,7.98,8.22l3.28,1.09-3.31,1.05c-3.85,1.22-6.88,4.23-8.11,8.09l-1.11,3.47-1.06-3.49c-1.17-3.87-4.14-6.93-7.97-8.21l-3.29-1.1,3.3-1.04c3.86-1.22,6.88-4.23,8.11-8.08l1.11-3.48Z"/>
    </g>
    <!-- "AI" stilizzato: ora in ARANCIONE narrativo -->
    <path class="cls-3" d="M332.1,76.15h-9.43V31.17h9.43v44.98Z"/>
    <path class="cls-3" d="M316.36,76.15h-10.61l-6.98-17.69h-29.09l-6.98,17.69h-11.23l24.02-59.15c2.17-5.36,7.38-8.86,13.16-8.86h0l27.71,68.01ZM296.11,50.5l-11.89-30.47-11.89,30.47h23.78Z"/>
    <path class="cls-2" d="M245.23,76.15h-11.23l23.41-57.64c2.54-6.27,8.63-10.37,15.4-10.37h0l-27.57,68.01Z"/>
    <path class="cls-1" d="M227.76,76.15h-11.23l23.41-57.64c2.54-6.27,8.63-10.37,15.4-10.37h0l-27.57,68.01Z"/>
  </g>
</svg>
