<?xml version="1.0" encoding="UTF-8"?>
<svg xmlns="http://www.w3.org/2000/svg" viewBox="0 0 1920 1080" preserveAspectRatio="xMidYMid slice" role="img" aria-label="Scene 08A — Compass lights up (WOW 3) — Cartoon Saloon">
  <title>Scene 08A — La bussola si accende (WOW 3)</title>
  <desc>Cartoon Saloon WOW 3: 5-fasi narrative (1) silenzio + mano weathered che si appoggia (2) glass rim accende inner orange (3) needle pulse squash 3x (4) cardinal marks N-E-S-W staggered (5) steady radiance + 3 pulse rings + magic particles con tail. Sabbia con grain texture vera turbulence. Mano dettagliata con rughe + dita pieghevoli + anello al pollice. Bussola con riflesso vetro brushed metal. Arancione SOLO interno alla bussola.</desc>

  <defs>
    <radialGradient id="s08_sandBg" cx="50%" cy="55%" r="72%">
      <stop offset="0%" stop-color="#F2E8D6"/>
      <stop offset="55%" stop-color="#E8DDC8"/>
      <stop offset="100%" stop-color="#C9BC9F"/>
    </radialGradient>
    <radialGradient id="s08_sandShadow" cx="50%" cy="50%" r="55%">
      <stop offset="0%" stop-color="#000" stop-opacity="0"/>
      <stop offset="100%" stop-color="#2A2420" stop-opacity="0.45"/>
    </radialGradient>

    <!-- Weathered hand skin con depth -->
    <linearGradient id="s08_hand" x1="0%" y1="0%" x2="0%" y2="100%">
      <stop offset="0%" stop-color="#C49880"/>
      <stop offset="55%" stop-color="#A47B5F"/>
      <stop offset="100%" stop-color="#704A30"/>
    </linearGradient>
    <linearGradient id="s08_handRim" x1="100%" y1="0%" x2="0%" y2="0%">
      <stop offset="0%" stop-color="#F5D0A0" stop-opacity="0.55"/>
      <stop offset="50%" stop-color="#F5D0A0" stop-opacity="0"/>
    </linearGradient>

    <!-- Compass metal body con brushed metal feel -->
    <radialGradient id="s08_metalBody" cx="50%" cy="40%" r="65%">
      <stop offset="0%" stop-color="#5C4F44"/>
      <stop offset="55%" stop-color="#3F362E"/>
      <stop offset="100%" stop-color="#15110E"/>
    </radialGradient>
    <linearGradient id="s08_metalEdge" x1="0%" y1="0%" x2="0%" y2="100%">
      <stop offset="0%" stop-color="#8A7560"/>
      <stop offset="55%" stop-color="#5C4F44"/>
      <stop offset="100%" stop-color="#15110E"/>
    </linearGradient>

    <radialGradient id="s08_glassOff" cx="50%" cy="50%" r="55%">
      <stop offset="0%" stop-color="#2C2622" stop-opacity="0.55"/>
      <stop offset="70%" stop-color="#1A1614" stop-opacity="0.85"/>
      <stop offset="100%" stop-color="#0E0B09" stop-opacity="0.95"/>
    </radialGradient>

    <radialGradient id="s08_orangeCore" cx="50%" cy="50%" r="58%">
      <stop offset="0%" stop-color="#FFCB8A"/>
      <stop offset="32%" stop-color="#FF9D52"/>
      <stop offset="68%" stop-color="#FF6B1A"/>
      <stop offset="100%" stop-color="#B33B00" stop-opacity="0.95"/>
    </radialGradient>

    <!-- Glass reflection (brushed metal feel — diagonal streak) -->
    <linearGradient id="s08_glassRefl" x1="0%" y1="0%" x2="100%" y2="100%">
      <stop offset="0%" stop-color="#FFFFFF" stop-opacity="0.32"/>
      <stop offset="22%" stop-color="#FFFFFF" stop-opacity="0.08"/>
      <stop offset="55%" stop-color="#FFFFFF" stop-opacity="0.02"/>
      <stop offset="100%" stop-color="#FFFFFF" stop-opacity="0"/>
    </linearGradient>
    <linearGradient id="s08_glassReflArc" x1="0%" y1="100%" x2="0%" y2="0%">
      <stop offset="0%" stop-color="#FFFFFF" stop-opacity="0"/>
      <stop offset="100%" stop-color="#FFFFFF" stop-opacity="0.2"/>
    </linearGradient>

    <radialGradient id="s08_innerSpill" cx="50%" cy="50%" r="55%">
      <stop offset="0%" stop-color="#FFD89C" stop-opacity="0.85"/>
      <stop offset="55%" stop-color="#FF8A3A" stop-opacity="0.42"/>
      <stop offset="100%" stop-color="#FF6B1A" stop-opacity="0"/>
    </radialGradient>

    <!-- Sand grain — vero turbulence on full background -->
    <filter id="s08_sandGrain" x="0%" y="0%" width="100%" height="100%">
      <feTurbulence type="fractalNoise" baseFrequency="0.65" numOctaves="2" seed="3"/>
      <feColorMatrix values="0 0 0 0 0.20  0 0 0 0 0.16  0 0 0 0 0.10  0 0 0 0.12 0"/>
      <feComposite in2="SourceGraphic" operator="in"/>
    </filter>
    <!-- Painterly micro-disturbance -->
    <filter id="s08_painterly" x="-5%" y="-5%" width="110%" height="110%">
      <feTurbulence type="fractalNoise" baseFrequency="0.008" numOctaves="3" seed="9"/>
      <feDisplacementMap in="SourceGraphic" scale="6"/>
    </filter>

    <filter id="s08_bloom" x="-50%" y="-50%" width="200%" height="200%">
      <feGaussianBlur stdDeviation="14" result="b"/>
      <feMerge><feMergeNode in="b"/><feMergeNode in="SourceGraphic"/></feMerge>
    </filter>
    <filter id="s08_bloomStrong" x="-100%" y="-100%" width="300%" height="300%">
      <feGaussianBlur stdDeviation="32"/>
      <feComponentTransfer><feFuncA type="linear" slope="1.5"/></feComponentTransfer>
    </filter>
    <filter id="s08_tailBlur" x="-50%" y="-50%" width="200%" height="200%">
      <feGaussianBlur stdDeviation="2.5"/>
    </filter>

    <clipPath id="s08_glassClip">
      <polygon points="960,330 1190,455 1190,705 960,830 730,705 730,455"/>
    </clipPath>

    <path id="s08_needle" d="
      M 0,-180 L 28,0 L 0,16 L -28,0 Z
      M 0,180 L 28,0 L 0,-16 L -28,0 Z"/>

    <symbol id="s08_ring" overflow="visible">
      <polygon points="0,-145 125,-72 125,72 0,145 -125,72 -125,-72"
               fill="none" stroke="#FF6B1A" stroke-width="2"/>
    </symbol>
  </defs>

  <!-- ============ BACKGROUND ============ -->
  <rect width="1920" height="1080" fill="url(#s08_sandBg)"/>
  <!-- vera grain texture via turbulence (full area) -->
  <rect width="1920" height="1080" fill="url(#s08_sandBg)" filter="url(#s08_sandGrain)" opacity="0.6"/>
  <rect width="1920" height="1080" fill="url(#s08_sandShadow)"/>
  <rect width="1920" height="380" fill="#F5EFE6" opacity="0.32"/>

  <!-- Subtle sand ridge contours -->
  <g stroke="#A89478" stroke-width="0.6" opacity="0.22">
    <path d="M 100,820 Q 540,800 1000,815 T 1820,820" fill="none"/>
    <path d="M 80,880 Q 560,860 1040,875 T 1840,880" fill="none"/>
    <path d="M 60,940 Q 580,920 1060,935 T 1860,940" fill="none"/>
    <path d="M 40,1010 Q 600,985 1080,1005 T 1880,1010" fill="none"/>
  </g>
  <!-- Sand grain dots scattered -->
  <g fill="#7B6244" opacity="0.35">
    <circle cx="240" cy="860" r="1.2"/><circle cx="380" cy="900" r="1"/>
    <circle cx="520" cy="940" r="1.4"/><circle cx="680" cy="880" r="1.1"/>
    <circle cx="1280" cy="900" r="1.3"/><circle cx="1450" cy="960" r="1"/>
    <circle cx="1620" cy="880" r="1.2"/><circle cx="1780" cy="920" r="1.1"/>
    <circle cx="160" cy="980" r="1"/><circle cx="900" cy="1020" r="1.3"/>
    <circle cx="1180" cy="1000" r="1.2"/><circle cx="1500" cy="1020" r="1.1"/>
  </g>

  <!-- ============ WEATHERED HAND ============ -->
  <g class="s08_handGroup">
    <animateTransform attributeName="transform" type="translate"
      values="0 -3; 0 0; 0 3; 0 4; 0 3"
      keyTimes="0;0.05;0.1;0.18;1"
      dur="8s" fill="freeze"
      calcMode="spline"
      keySplines="0.25 0.46 0.45 0.94;0.25 0.46 0.45 0.94;0.42 0 0.58 1;0.42 0 0.58 1"/>

    <!-- Hand shadow on sand -->
    <ellipse cx="880" cy="880" rx="320" ry="38" fill="#000" opacity="0.32"/>

    <!-- HAND SILHOUETTE — weathered with detail -->
    <g transform="translate(960 540) scale(1.05)" opacity="0.97">
      <!-- Main hand body -->
      <path d="
        M -640,-180
        C -680,-90 -700,40 -680,140
        C -660,260 -560,360 -380,360
        C -240,360 -100,300 -20,200
        L 60,80
        C 80,40 70,-40 40,-80
        C 10,-120 -40,-130 -100,-110
        L -300,-50
        C -380,-30 -480,-90 -540,-150
        C -580,-190 -620,-200 -640,-180 Z
      " fill="url(#s08_hand)" stroke="#1A1614" stroke-width="3.5" stroke-linejoin="round" stroke-linecap="round"/>

      <!-- Top-edge shadow rim -->
      <path d="M -640,-180 C -680,-90 -700,40 -680,140 C -660,260 -560,360 -380,360"
            fill="none" stroke="#1A1614" stroke-width="2.5" stroke-linecap="round" opacity="0.55"/>

      <!-- Rim light (warm, on right edge near compass) -->
      <path d="M -380,360 C -240,360 -100,300 -20,200 L 60,80 C 80,40 70,-40 40,-80"
            fill="none" stroke="url(#s08_handRim)" stroke-width="14" opacity="0.65"/>

      <!-- Deep wrinkles (rughe) — più dense del pilot -->
      <path d="M -500,-30 C -460,10 -380,30 -300,20" fill="none" stroke="#1A1614" stroke-width="2.2" opacity="0.45"/>
      <path d="M -420,80 C -360,110 -280,120 -200,100" fill="none" stroke="#1A1614" stroke-width="2.2" opacity="0.45"/>
      <path d="M -340,180 C -280,200 -200,200 -120,180" fill="none" stroke="#1A1614" stroke-width="2.2" opacity="0.42"/>
      <path d="M -560,-110 C -520,-80 -460,-70 -420,-90" fill="none" stroke="#1A1614" stroke-width="1.8" opacity="0.38"/>
      <path d="M -260,260 C -200,280 -140,270 -80,250" fill="none" stroke="#1A1614" stroke-width="1.8" opacity="0.38"/>
      <path d="M -480,-60 C -440,-40 -380,-30 -340,-40" fill="none" stroke="#1A1614" stroke-width="1.5" opacity="0.35"/>
      <path d="M -380,40 C -340,60 -280,70 -240,60" fill="none" stroke="#1A1614" stroke-width="1.5" opacity="0.35"/>

      <!-- Finger creases (dita pieghevoli — flessione di nocche e falangi) -->
      <path d="M -180,200 C -160,220 -120,225 -100,215" fill="none" stroke="#1A1614" stroke-width="1.8" opacity="0.45"/>
      <path d="M -100,140 C -80,160 -40,165 -20,155" fill="none" stroke="#1A1614" stroke-width="1.8" opacity="0.45"/>
      <path d="M -40,80 C -20,100 20,105 40,95" fill="none" stroke="#1A1614" stroke-width="1.8" opacity="0.45"/>

      <!-- Knuckles -->
      <ellipse cx="-360" cy="200" rx="38" ry="22" fill="none" stroke="#1A1614" stroke-width="1.8" opacity="0.4"/>
      <ellipse cx="-240" cy="220" rx="38" ry="22" fill="none" stroke="#1A1614" stroke-width="1.8" opacity="0.4"/>
      <ellipse cx="-140" cy="200" rx="34" ry="20" fill="none" stroke="#1A1614" stroke-width="1.5" opacity="0.35"/>

      <!-- Anello al pollice (brass ring) -->
      <ellipse cx="-540" cy="-130" rx="28" ry="14" fill="none" stroke="#8A7550" stroke-width="3.5"/>
      <ellipse cx="-540" cy="-130" rx="22" ry="9" fill="none" stroke="#15100B" stroke-width="1.5" opacity="0.7"/>
      <!-- Small ring jewel highlight -->
      <ellipse cx="-540" cy="-135" rx="3" ry="2" fill="#D4B888" opacity="0.85"/>

      <!-- Nail highlights (subtle pale tips) -->
      <path d="M -380,228 Q -360,220 -340,228" fill="none" stroke="#E0BC95" stroke-width="2" opacity="0.5"/>
      <path d="M -260,248 Q -240,240 -220,248" fill="none" stroke="#E0BC95" stroke-width="2" opacity="0.5"/>
    </g>
  </g>

  <!-- ============ COMPASS BODY (static center) ============ -->
  <polygon
    points="960,290 1220,440 1220,740 960,890 700,740 700,440"
    fill="url(#s08_metalBody)" stroke="#0A0806" stroke-width="2"/>
  <polygon
    points="960,290 1220,440 1220,740 960,890 700,740 700,440"
    fill="none" stroke="url(#s08_metalEdge)" stroke-width="6" stroke-linejoin="round" opacity="0.9"/>
  <polygon
    points="960,290 1220,440 1220,740 960,890 700,740 700,440"
    fill="none" stroke="#1A1614" stroke-width="4.5" stroke-linejoin="round"/>

  <!-- Brushed metal streaks on body -->
  <g stroke="#5C4F44" stroke-width="0.5" opacity="0.45">
    <line x1="730" y1="460" x2="1190" y2="460"/>
    <line x1="720" y1="500" x2="1200" y2="500"/>
    <line x1="710" y1="540" x2="1210" y2="540"/>
    <line x1="705" y1="600" x2="1215" y2="600"/>
    <line x1="710" y1="660" x2="1210" y2="660"/>
    <line x1="720" y1="700" x2="1200" y2="700"/>
  </g>

  <!-- Vertex tabs -->
  <g fill="#5C4F44" stroke="#1A1614" stroke-width="1.5">
    <circle cx="960" cy="290" r="9"/>
    <circle cx="1220" cy="440" r="9"/>
    <circle cx="1220" cy="740" r="9"/>
    <circle cx="960" cy="890" r="9"/>
    <circle cx="700" cy="740" r="9"/>
    <circle cx="700" cy="440" r="9"/>
  </g>

  <!-- ============ GLASS LAYERS (CLIPPED) ============ -->
  <g clip-path="url(#s08_glassClip)">
    <!-- Phase 1: dark glass -->
    <rect x="700" y="320" width="540" height="580" fill="url(#s08_glassOff)">
      <animate attributeName="opacity"
        values="1;1;0.95;0.55;0.2;0.06;0;0"
        keyTimes="0;0.18;0.25;0.32;0.4;0.5;0.6;1"
        dur="8s" fill="freeze"/>
    </rect>

    <!-- Phase 2: orange core ignites -->
    <rect x="700" y="320" width="540" height="580" fill="url(#s08_orangeCore)" opacity="0">
      <animate attributeName="opacity"
        values="0;0;0.05;0.18;0.45;0.78;0.95;1"
        keyTimes="0;0.2;0.25;0.32;0.42;0.55;0.75;1"
        dur="8s" fill="freeze"
        calcMode="spline"
        keySplines="0.42 0 0.58 1;0.42 0 0.58 1;0.25 0.46 0.45 0.94;0.42 0 0.58 1;0.42 0 0.58 1;0.42 0 0.58 1;0.42 0 0.58 1"/>
    </rect>

    <!-- Warm spill breathing -->
    <circle cx="960" cy="540" r="220" fill="url(#s08_innerSpill)" opacity="0" filter="url(#s08_bloom)">
      <animate attributeName="opacity"
        values="0;0;0.18;0.45;0.7;0.65;0.78;0.7;0.75"
        keyTimes="0;0.2;0.32;0.45;0.6;0.72;0.82;0.92;1"
        dur="8s" fill="freeze"/>
      <animate attributeName="r"
        values="180;180;200;220;230;225;235;228;232"
        keyTimes="0;0.2;0.32;0.45;0.6;0.72;0.82;0.92;1"
        dur="8s" fill="freeze"/>
    </circle>

    <!-- Glass reflection BRUSHED METAL feel — diagonal streak + arc -->
    <polygon points="730,460 855,395 855,510 730,575" fill="url(#s08_glassRefl)"/>
    <!-- Curved highlight arc (suggesting glass curvature) -->
    <path d="M 740,470 Q 820,400 920,380" fill="none" stroke="#FFFFFF" stroke-width="3" opacity="0.32"/>
    <path d="M 750,490 Q 815,430 880,420" fill="none" stroke="#FFFFFF" stroke-width="1.5" opacity="0.45"/>
    <!-- Bottom rim subtle reflection -->
    <path d="M 760,760 Q 960,820 1160,760" fill="none" stroke="url(#s08_glassReflArc)" stroke-width="14" opacity="0.4"/>

    <!-- NEEDLE -->
    <g transform="translate(960 540)">
      <use href="#s08_needle" fill="#3A322B" opacity="1">
        <animate attributeName="opacity"
          values="1;1;0.85;0.4;0.1;0;0"
          keyTimes="0;0.3;0.36;0.42;0.5;0.6;1"
          dur="8s" fill="freeze"/>
      </use>
      <g>
        <animateTransform attributeName="transform" type="scale"
          values="1 1;1 1;1.06 0.94;1 1;1.04 0.96;1 1;1.02 0.98;1 1"
          keyTimes="0;0.35;0.4;0.45;0.5;0.55;0.62;1"
          dur="8s" fill="freeze"
          calcMode="spline"
          keySplines="0.42 0 0.58 1;0.25 0.46 0.45 0.94;0.42 0 0.58 1;0.25 0.46 0.45 0.94;0.42 0 0.58 1;0.25 0.46 0.45 0.94;0.42 0 0.58 1"/>
        <use href="#s08_needle" fill="#FF6B1A" opacity="0" filter="url(#s08_bloom)">
          <animate attributeName="opacity"
            values="0;0;0.35;0.78;1;1;1"
            keyTimes="0;0.3;0.38;0.46;0.55;0.75;1"
            dur="8s" fill="freeze"/>
        </use>
        <circle r="9" fill="#3A322B" stroke="#FF6B1A" stroke-width="2" opacity="0">
          <animate attributeName="opacity"
            values="0;0;0.4;0.9;1;1"
            keyTimes="0;0.35;0.45;0.55;0.65;1"
            dur="8s" fill="freeze"/>
        </circle>
      </g>
    </g>

    <!-- Cardinal marks -->
    <g transform="translate(960 540)" filter="url(#s08_bloom)">
      <g opacity="0">
        <animate attributeName="opacity"
          values="0;0;0;0;0.35;0.78;1;1"
          keyTimes="0;0.5;0.55;0.58;0.62;0.68;0.78;1"
          dur="8s" fill="freeze"/>
        <polygon points="0,-258 -16,-228 16,-228" fill="#FF6B1A"/>
        <polygon points="0,-220 -8,-205 8,-205" fill="#FFCB8A"/>
      </g>
      <g opacity="0">
        <animate attributeName="opacity"
          values="0;0;0;0;0.35;0.78;1;1"
          keyTimes="0;0.55;0.60;0.63;0.67;0.73;0.83;1"
          dur="8s" fill="freeze"/>
        <polygon points="228,0 198,-16 198,16" fill="#FF6B1A"/>
        <polygon points="200,0 186,-8 186,8" fill="#FFCB8A"/>
      </g>
      <g opacity="0">
        <animate attributeName="opacity"
          values="0;0;0;0;0.35;0.78;1;1"
          keyTimes="0;0.60;0.65;0.68;0.72;0.78;0.88;1"
          dur="8s" fill="freeze"/>
        <polygon points="0,258 -16,228 16,228" fill="#FF6B1A"/>
        <polygon points="0,220 -8,205 8,205" fill="#FFCB8A"/>
      </g>
      <g opacity="0">
        <animate attributeName="opacity"
          values="0;0;0;0;0.35;0.78;1;1"
          keyTimes="0;0.65;0.70;0.73;0.77;0.83;0.93;1"
          dur="8s" fill="freeze"/>
        <polygon points="-228,0 -198,-16 -198,16" fill="#FF6B1A"/>
        <polygon points="-200,0 -186,-8 -186,8" fill="#FFCB8A"/>
      </g>

      <g fill="#FF6B1A" opacity="0">
        <animate attributeName="opacity"
          values="0;0;0;0;0.3;0.6;0.8"
          keyTimes="0;0.7;0.78;0.82;0.88;0.95;1"
          dur="8s" fill="freeze"/>
        <circle cx="160" cy="-160" r="3.5"/>
        <circle cx="-160" cy="-160" r="3.5"/>
        <circle cx="160" cy="160" r="3.5"/>
        <circle cx="-160" cy="160" r="3.5"/>
      </g>
    </g>

    <!-- PULSE RINGS -->
    <g transform="translate(960 540)">
      <use href="#s08_ring" opacity="0">
        <animateTransform attributeName="transform" type="scale"
          values="0.6;0.6;0.6;1.0;1.4;1.7"
          keyTimes="0;0.72;0.78;0.85;0.93;1"
          dur="8s" fill="freeze"
          calcMode="spline"
          keySplines="0.42 0 0.58 1;0.42 0 0.58 1;0 0 0.2 1;0 0 0.2 1;0 0 0.2 1"/>
        <animate attributeName="opacity"
          values="0;0;0;0.8;0.4;0"
          keyTimes="0;0.72;0.78;0.85;0.93;1"
          dur="8s" fill="freeze"/>
      </use>
      <use href="#s08_ring" opacity="0">
        <animateTransform attributeName="transform" type="scale"
          values="0.6;0.6;0.6;0.6;1.0;1.4;1.7"
          keyTimes="0;0.78;0.82;0.84;0.91;0.99;1"
          dur="8s" fill="freeze"
          calcMode="spline"
          keySplines="0.42 0 0.58 1;0.42 0 0.58 1;0.42 0 0.58 1;0 0 0.2 1;0 0 0.2 1;0 0 0.2 1"/>
        <animate attributeName="opacity"
          values="0;0;0;0;0.7;0.3;0"
          keyTimes="0;0.78;0.82;0.84;0.91;0.99;1"
          dur="8s" fill="freeze"/>
      </use>
      <use href="#s08_ring" opacity="0">
        <animateTransform attributeName="transform" type="scale"
          values="0.6;0.6;0.6;0.6;0.6;1.0;1.3"
          keyTimes="0;0.84;0.86;0.88;0.9;0.97;1"
          dur="8s" fill="freeze"
          calcMode="spline"
          keySplines="0.42 0 0.58 1;0.42 0 0.58 1;0.42 0 0.58 1;0.42 0 0.58 1;0 0 0.2 1;0 0 0.2 1"/>
        <animate attributeName="opacity"
          values="0;0;0;0;0;0.6;0.25"
          keyTimes="0;0.84;0.86;0.88;0.9;0.97;1"
          dur="8s" fill="freeze"/>
      </use>
    </g>

    <!-- MAGIC PARTICLES con TAIL effect (motion trail) -->
    <g fill="#FFD89C" filter="url(#s08_bloom)">
      <!-- Particle A with tail -->
      <g>
        <ellipse cx="940" cy="610" rx="2" ry="14" opacity="0" filter="url(#s08_tailBlur)">
          <animate attributeName="cy" values="610;610;540;460;380" keyTimes="0;0.4;0.6;0.8;1" dur="8s" fill="freeze"/>
          <animate attributeName="opacity" values="0;0;0.7;0.45;0" keyTimes="0;0.4;0.6;0.8;1" dur="8s" fill="freeze"/>
        </ellipse>
        <circle cx="940" cy="610" r="3" opacity="0">
          <animate attributeName="cy" values="610;610;540;460;380" keyTimes="0;0.4;0.6;0.8;1" dur="8s" fill="freeze"/>
          <animate attributeName="opacity" values="0;0;0.95;0.6;0" keyTimes="0;0.4;0.55;0.8;1" dur="8s" fill="freeze"/>
        </circle>
      </g>

      <!-- Particle B with tail -->
      <g>
        <ellipse cx="985" cy="600" rx="1.5" ry="12" opacity="0" filter="url(#s08_tailBlur)">
          <animate attributeName="cy" values="600;600;600;530;420;360" keyTimes="0;0.5;0.6;0.75;0.95;1" dur="8s" fill="freeze"/>
          <animate attributeName="opacity" values="0;0;0;0.6;0.3;0" keyTimes="0;0.5;0.6;0.75;0.92;1" dur="8s" fill="freeze"/>
        </ellipse>
        <circle cx="985" cy="600" r="2.4" opacity="0">
          <animate attributeName="cy" values="600;600;600;530;420;360" keyTimes="0;0.5;0.6;0.75;0.95;1" dur="8s" fill="freeze"/>
          <animate attributeName="opacity" values="0;0;0;0.85;0.45;0" keyTimes="0;0.5;0.6;0.75;0.92;1" dur="8s" fill="freeze"/>
        </circle>
      </g>

      <!-- Particle C with tail -->
      <g>
        <ellipse cx="912" cy="620" rx="1.8" ry="13" opacity="0" filter="url(#s08_tailBlur)">
          <animate attributeName="cy" values="620;620;620;620;540;440" keyTimes="0;0.6;0.7;0.75;0.9;1" dur="8s" fill="freeze"/>
          <animate attributeName="opacity" values="0;0;0;0;0.6;0.25" keyTimes="0;0.6;0.7;0.75;0.9;1" dur="8s" fill="freeze"/>
        </ellipse>
        <circle cx="912" cy="620" r="2.8" opacity="0">
          <animate attributeName="cy" values="620;620;620;620;540;440" keyTimes="0;0.6;0.7;0.75;0.9;1" dur="8s" fill="freeze"/>
          <animate attributeName="opacity" values="0;0;0;0;0.85;0.4" keyTimes="0;0.6;0.7;0.75;0.9;1" dur="8s" fill="freeze"/>
        </circle>
      </g>

      <!-- Particle D extra (right side) -->
      <g>
        <ellipse cx="1010" cy="610" rx="1.6" ry="11" opacity="0" filter="url(#s08_tailBlur)">
          <animate attributeName="cy" values="610;610;610;530;430" keyTimes="0;0.62;0.72;0.88;1" dur="8s" fill="freeze"/>
          <animate attributeName="opacity" values="0;0;0;0.55;0.2" keyTimes="0;0.62;0.72;0.88;1" dur="8s" fill="freeze"/>
        </ellipse>
        <circle cx="1010" cy="610" r="2.2" opacity="0">
          <animate attributeName="cy" values="610;610;610;530;430" keyTimes="0;0.62;0.72;0.88;1" dur="8s" fill="freeze"/>
          <animate attributeName="opacity" values="0;0;0;0.8;0.3" keyTimes="0;0.62;0.72;0.88;1" dur="8s" fill="freeze"/>
        </circle>
      </g>
    </g>

    <!-- Steady radiance -->
    <circle cx="960" cy="540" r="60" fill="#FFE0B0" opacity="0" filter="url(#s08_bloomStrong)">
      <animate attributeName="opacity"
        values="0;0;0;0.18;0.4;0.55;0.5;0.55"
        keyTimes="0;0.5;0.65;0.75;0.85;0.92;0.97;1"
        dur="8s" fill="freeze"/>
      <animate attributeName="r"
        values="40;40;60;90;130;160;145;160"
        keyTimes="0;0.5;0.65;0.75;0.85;0.92;0.97;1"
        dur="8s" fill="freeze"/>
    </circle>
  </g>

  <!-- RIM GLOW orange on hex border (boundary only — NOT spilling to sand) -->
  <polygon
    points="960,330 1190,455 1190,705 960,830 730,705 730,455"
    fill="none" stroke="#FF6B1A" stroke-width="0" stroke-linejoin="round">
    <animate attributeName="stroke-width"
      values="0;0;2;4.5;5.5;5;5.5"
      keyTimes="0;0.2;0.28;0.4;0.55;0.85;1"
      dur="8s" fill="freeze"/>
    <animate attributeName="opacity"
      values="0;0;0.5;0.9;1;0.92;0.96"
      keyTimes="0;0.2;0.28;0.4;0.55;0.85;1"
      dur="8s" fill="freeze"/>
  </polygon>

  <!-- Painterly overlay (cream/beige preserving) -->
  <rect width="1920" height="1080" fill="#FFFFFF" opacity="0.04" filter="url(#s08_painterly)" pointer-events="none"/>

  <!-- Vignette -->
  <radialGradient id="s08_vig" cx="50%" cy="50%" r="78%">
    <stop offset="58%" stop-color="#000" stop-opacity="0"/>
    <stop offset="100%" stop-color="#000" stop-opacity="0.42"/>
  </radialGradient>
  <rect width="1920" height="1080" fill="url(#s08_vig)" pointer-events="none"/>
</svg>
