<?xml version="1.0" encoding="UTF-8"?>
<svg xmlns="http://www.w3.org/2000/svg" viewBox="0 0 1920 1080" preserveAspectRatio="xMidYMid slice" role="img" aria-label="Scene 11B — Two compasses on bridge table">
  <title>Scene 11B — Bussolaria con due bussole, vecchia di ottone e nuova arancione</title>
  <desc>Tavolo sul ponte. Bussola di ottone a sinistra, bussola arancione a destra. Mano weathered che tocca entrambe.</desc>

  <defs>
    <linearGradient id="bg11b" x1="0%" y1="0%" x2="0%" y2="100%">
      <stop offset="0%" stop-color="#3A2C1E"/>
      <stop offset="60%" stop-color="#2A1E12"/>
      <stop offset="100%" stop-color="#15100B"/>
    </linearGradient>
    <linearGradient id="tableTop11b" x1="0%" y1="0%" x2="0%" y2="100%">
      <stop offset="0%" stop-color="#6A4C2C"/>
      <stop offset="100%" stop-color="#2A1E10"/>
    </linearGradient>
    <radialGradient id="lamp11b" cx="50%" cy="0%" r="80%">
      <stop offset="0%" stop-color="#F8D898" stop-opacity="0.55"/>
      <stop offset="60%" stop-color="#C89858" stop-opacity="0.2"/>
      <stop offset="100%" stop-color="#C89858" stop-opacity="0"/>
    </radialGradient>
    <!-- Brass compass colors -->
    <radialGradient id="brassRim" cx="50%" cy="40%" r="60%">
      <stop offset="0%" stop-color="#D8B070"/>
      <stop offset="60%" stop-color="#A8804A"/>
      <stop offset="100%" stop-color="#5A3F1C"/>
    </radialGradient>
    <radialGradient id="brassFace" cx="50%" cy="50%" r="50%">
      <stop offset="0%" stop-color="#F0DCA8"/>
      <stop offset="100%" stop-color="#A8804A"/>
    </radialGradient>
    <!-- Orange compass colors -->
    <radialGradient id="orangeRim11b" cx="50%" cy="40%" r="60%">
      <stop offset="0%" stop-color="#4A3F36"/>
      <stop offset="100%" stop-color="#1A1410"/>
    </radialGradient>
    <radialGradient id="orangeFace11b" cx="50%" cy="50%" r="55%">
      <stop offset="0%" stop-color="#FFCFA0"/>
      <stop offset="50%" stop-color="#FF6B1A"/>
      <stop offset="100%" stop-color="#A83B00" stop-opacity="0.9"/>
    </radialGradient>
    <radialGradient id="orangeSpill11b" cx="50%" cy="50%" r="55%">
      <stop offset="0%" stop-color="#FFB066" stop-opacity="0.85"/>
      <stop offset="100%" stop-color="#FF6B1A" stop-opacity="0"/>
    </radialGradient>
    <linearGradient id="skin11b" x1="0%" y1="0%" x2="0%" y2="100%">
      <stop offset="0%" stop-color="#B68B6E"/>
      <stop offset="100%" stop-color="#6E4F32"/>
    </linearGradient>
    <filter id="bloom11b" x="-50%" y="-50%" width="200%" height="200%">
      <feGaussianBlur stdDeviation="14"/>
      <feMerge>
        <feMergeNode/>
        <feMergeNode in="SourceGraphic"/>
      </feMerge>
    </filter>
    <filter id="grain11b">
      <feTurbulence type="fractalNoise" baseFrequency="0.7" numOctaves="2" seed="44"/>
      <feColorMatrix values="0 0 0 0 0.1  0 0 0 0 0.08  0 0 0 0 0.05  0 0 0 0.06 0"/>
    </filter>
    <radialGradient id="vig11b" cx="50%" cy="50%" r="75%">
      <stop offset="50%" stop-color="#000" stop-opacity="0"/>
      <stop offset="100%" stop-color="#000" stop-opacity="0.5"/>
    </radialGradient>
  </defs>

  <!-- Dim cabin background -->
  <rect width="1920" height="1080" fill="url(#bg11b)"/>
  <rect width="1920" height="1080" fill="#000" opacity="0.5" filter="url(#grain11b)"/>

  <!-- Hanging lamp light from above -->
  <rect width="1920" height="540" fill="url(#lamp11b)"/>

  <!-- Wooden table top (perspective) -->
  <path d="M 0,560 L 1920,560 L 1700,1080 L 220,1080 Z" fill="url(#tableTop11b)"/>
  <!-- Wood grain -->
  <g stroke="#1A1108" stroke-width="1" opacity="0.55" fill="none">
    <path d="M 100,640 Q 800,620 1820,650"/>
    <path d="M 50,740 Q 900,720 1870,760"/>
    <path d="M 20,840 Q 950,820 1900,860"/>
    <path d="M 0,940 Q 1000,920 1920,960"/>
  </g>
  <!-- Plank seams -->
  <g stroke="#1A1108" stroke-width="1.5" opacity="0.65">
    <line x1="540" y1="560" x2="470" y2="1080"/>
    <line x1="960" y1="560" x2="960" y2="1080"/>
    <line x1="1380" y1="560" x2="1450" y2="1080"/>
  </g>

  <!-- Slow dolly-in toward the two compasses -->
  <g transform="translate(960 720)">
    <g>
      <animateTransform attributeName="transform" type="scale"
        values="0.94; 0.98; 1.02; 1.06" keyTimes="0;0.35;0.7;1" dur="8s" fill="freeze"/>

      <!-- ============== BRASS COMPASS (left, old) ============== -->
      <g transform="translate(-280 0)">
        <!-- Shadow -->
        <ellipse cx="0" cy="180" rx="180" ry="22" fill="#000" opacity="0.5"/>
        <!-- Brass outer rim -->
        <circle r="180" fill="url(#brassRim)" stroke="#3F2A0E" stroke-width="4"/>
        <!-- Inner bezel -->
        <circle r="155" fill="#4A3318" stroke="#1A1108" stroke-width="2"/>
        <!-- Face -->
        <circle r="140" fill="url(#brassFace)" stroke="#5A3F1C" stroke-width="2"/>
        <!-- Dial rings -->
        <circle r="130" fill="none" stroke="#5A3F1C" stroke-width="1.5" opacity="0.5"/>
        <circle r="100" fill="none" stroke="#5A3F1C" stroke-width="1" opacity="0.4"/>
        <!-- Cardinal diamonds (no text) -->
        <g fill="#3F2A0E" opacity="0.9">
          <polygon points="0,-128 8,-114 0,-100 -8,-114"/>
          <polygon points="128,0 114,8 100,0 114,-8"/>
          <polygon points="0,128 8,114 0,100 -8,114"/>
          <polygon points="-128,0 -114,8 -100,0 -114,-8"/>
        </g>
        <!-- Tick marks -->
        <g stroke="#3F2A0E" stroke-width="2" opacity="0.7">
          <g transform="rotate(30)"><line x1="0" y1="-125" x2="0" y2="-110"/></g>
          <g transform="rotate(60)"><line x1="0" y1="-125" x2="0" y2="-110"/></g>
          <g transform="rotate(120)"><line x1="0" y1="-125" x2="0" y2="-110"/></g>
          <g transform="rotate(150)"><line x1="0" y1="-125" x2="0" y2="-110"/></g>
          <g transform="rotate(210)"><line x1="0" y1="-125" x2="0" y2="-110"/></g>
          <g transform="rotate(240)"><line x1="0" y1="-125" x2="0" y2="-110"/></g>
          <g transform="rotate(300)"><line x1="0" y1="-125" x2="0" y2="-110"/></g>
          <g transform="rotate(330)"><line x1="0" y1="-125" x2="0" y2="-110"/></g>
        </g>
        <!-- Needle (north up) -->
        <polygon points="0,-110 10,0 0,6 -10,0" fill="#8B0A0A" stroke="#3F0A0A" stroke-width="1.5"/>
        <polygon points="0,110 10,0 0,-6 -10,0" fill="#1A1410" stroke="#0A0805" stroke-width="1.5"/>
        <circle r="10" fill="#3F2A0E" stroke="#1A1108" stroke-width="1.5"/>
        <!-- Glass highlight -->
        <ellipse cx="-50" cy="-50" rx="40" ry="22" fill="#FFFFFF" opacity="0.18"/>
        <!-- Patina (age stains) -->
        <g fill="#3F2A0E" opacity="0.25">
          <circle cx="80" cy="60" r="6"/>
          <circle cx="-60" cy="80" r="5"/>
          <circle cx="100" cy="-40" r="4"/>
        </g>
      </g>

      <!-- ============== ORANGE COMPASS (right, new, hexagonal, glowing) ============== -->
      <g transform="translate(280 0)">
        <!-- Orange floor spill (pulsing) -->
        <circle r="320" fill="url(#orangeSpill11b)" filter="url(#bloom11b)" opacity="0.85">
          <animate attributeName="opacity" values="0.7;0.95;0.8;1;0.85" keyTimes="0;0.25;0.5;0.75;1" dur="3s" repeatCount="indefinite"/>
        </circle>
        <!-- Shadow -->
        <ellipse cx="0" cy="180" rx="200" ry="24" fill="#000" opacity="0.55"/>
        <!-- Outer hex rim -->
        <polygon points="0,-180 156,-90 156,90 0,180 -156,90 -156,-90" fill="url(#orangeRim11b)" stroke="#0A0805" stroke-width="4" stroke-linejoin="round"/>
        <!-- Bezel -->
        <polygon points="0,-155 134,-77 134,77 0,155 -134,77 -134,-77" fill="#2A2420" stroke="#0A0805" stroke-width="2" stroke-linejoin="round"/>
        <!-- Glass face -->
        <polygon points="0,-135 117,-67 117,67 0,135 -117,67 -117,-67" fill="url(#orangeFace11b)" stroke="#5A1E00" stroke-width="1.5" stroke-linejoin="round"/>
        <!-- Inner glow -->
        <circle r="50" fill="#FFCFA0" opacity="0.7" filter="url(#bloom11b)">
          <animate attributeName="opacity" values="0.55;0.85;0.65;0.85;0.7" keyTimes="0;0.25;0.5;0.75;1" dur="3s" repeatCount="indefinite"/>
        </circle>
        <!-- Cardinal diamonds -->
        <g fill="#2A1408" opacity="0.85">
          <polygon points="0,-130 8,-115 0,-100 -8,-115"/>
          <polygon points="130,0 115,8 100,0 115,-8"/>
          <polygon points="0,130 8,115 0,100 -8,115"/>
          <polygon points="-130,0 -115,8 -100,0 -115,-8"/>
        </g>
        <!-- Needle (tip orange, locked in a forward direction) -->
        <g transform="rotate(15)">
          <polygon points="0,-110 12,0 0,6 -12,0" fill="#FF6B1A" stroke="#5A1E00" stroke-width="1.5" filter="url(#bloom11b)"/>
          <polygon points="0,110 12,0 0,-6 -12,0" fill="#1A1410" stroke="#0A0805" stroke-width="1.5"/>
        </g>
        <circle r="11" fill="#3A2F22" stroke="#0A0805" stroke-width="1.5"/>
        <circle r="4" fill="#FFCFA0"/>
        <!-- Glass sheen -->
        <polygon points="-80,-80 -30,-110 -30,-50 -80,-30" fill="#FFFFFF" opacity="0.14"/>
      </g>

      <!-- ============== WEATHERED HAND in foreground (centered, fingers spanning both) ============== -->
      <g transform="translate(0 280)">
        <!-- Forearm cuff entering from below frame -->
        <path d="M -80,260 L 80,260 L 100,200 L -100,200 Z" fill="#2A1810" stroke="#1A1108" stroke-width="2"/>
        <!-- Hand palm-down on table -->
        <path d="M -200,180 Q -240,80 -200,-20 Q -120,-80 -40,-60 Q 40,-80 120,-60 Q 200,-40 240,40 Q 260,140 200,200 Q 100,240 0,225 Q -100,240 -200,200 Z"
              fill="url(#skin11b)" stroke="#2A1810" stroke-width="3" stroke-linejoin="round"/>
        <!-- Thumb extending left (toward brass compass) -->
        <path d="M -200,-20 Q -260,-80 -340,-60 Q -380,-20 -340,30 Q -280,50 -220,30 Z" fill="url(#skin11b)" stroke="#2A1810" stroke-width="3"/>
        <!-- Fingers reaching right (toward orange compass) -->
        <g fill="url(#skin11b)" stroke="#2A1810" stroke-width="3" stroke-linejoin="round">
          <path d="M 200,-40 Q 280,-60 340,-30 Q 360,10 320,30 Q 260,30 220,10 Z"/>
          <path d="M 240,40 Q 320,40 360,80 Q 360,130 310,140 Q 250,130 220,100 Z"/>
        </g>
        <!-- Knuckle hints -->
        <g opacity="0.55" fill="#8B6647">
          <ellipse cx="40" cy="0" rx="20" ry="14"/>
          <ellipse cx="120" cy="20" rx="20" ry="14"/>
          <ellipse cx="-40" cy="-10" rx="20" ry="14"/>
        </g>
        <!-- Wrinkle lines -->
        <path d="M -180,80 Q -50,110 180,90" fill="none" stroke="#2A1810" stroke-width="2" opacity="0.45"/>
        <path d="M -160,140 Q -40,170 160,150" fill="none" stroke="#2A1810" stroke-width="1.5" opacity="0.4"/>

        <!-- Orange backlight on right side of hand (from new compass) -->
        <path d="M 150,-60 Q 220,-20 240,40 Q 240,140 180,200" stroke="#FF8A3A" stroke-width="2.5" fill="none" opacity="0.7" filter="url(#bloom11b)"/>
        <!-- Brass warm light on left side -->
        <path d="M -180,180 Q -240,80 -200,-20" stroke="#D8B070" stroke-width="1.8" fill="none" opacity="0.55" filter="url(#bloom11b)"/>
      </g>
    </g>
  </g>

  <!-- Vignette -->
  <rect width="1920" height="1080" fill="url(#vig11b)" pointer-events="none"/>
</svg>
