<?xml version="1.0" encoding="UTF-8"?>
<svg xmlns="http://www.w3.org/2000/svg" viewBox="0 0 1920 1080" preserveAspectRatio="xMidYMid slice" role="img" aria-label="Scene 11A — Setting sail at sunset (Disney polish, Act III)">
  <title>Scene 11A — Nave salpa al tramonto, 3 navi ferme</title>
  <desc>Disney rewrite per nuovo testo chiusura "altre navi ferme": tramonto pittorico arancione, nave principale che salpa con 4-5 silhouette ciurma (capitano line of action S = dynamic, altri C/I per ruolo), 3 navi ferme distinte in lontananza (vele ammainate / a metà / immobile = diverse fasi di chi non si muove). Stroke variabile, mandala tramonto, vignette.</desc>

  <defs>
    <filter id="painterly11a" x="-5%" y="-5%" width="110%" height="110%">
      <feTurbulence type="fractalNoise" baseFrequency="0.008" numOctaves="2" seed="77"/>
      <feDisplacementMap in="SourceGraphic" scale="6"/>
    </filter>
    <filter id="haze11a" x="-10%" y="-10%" width="120%" height="120%">
      <feGaussianBlur stdDeviation="2.6"/>
    </filter>
    <filter id="softBlur11a" x="-20%" y="-20%" width="140%" height="140%">
      <feGaussianBlur stdDeviation="6"/>
    </filter>
    <filter id="sunGlow11a" x="-30%" y="-30%" width="160%" height="160%">
      <feGaussianBlur stdDeviation="16"/>
    </filter>

    <!-- Sunset sky: orange → violet → ink (single light: sun centered) -->
    <linearGradient id="sunsetSky" x1="50%" y1="0%" x2="50%" y2="100%">
      <stop offset="0%" stop-color="#3F2854"/>
      <stop offset="35%" stop-color="#9C4830"/>
      <stop offset="65%" stop-color="#FF8A3D"/>
      <stop offset="90%" stop-color="#FFB570"/>
      <stop offset="100%" stop-color="#F2D9C2"/>
    </linearGradient>

    <!-- Sun core (off-center horizontal for asymmetry) -->
    <radialGradient id="sunCore" cx="48%" cy="65%" r="22%">
      <stop offset="0%" stop-color="#FFFFFF" stop-opacity="1"/>
      <stop offset="35%" stop-color="#FFE0B0" stop-opacity="0.95"/>
      <stop offset="80%" stop-color="#FF8A3D" stop-opacity="0.5"/>
      <stop offset="100%" stop-color="#FF8A3D" stop-opacity="0"/>
    </radialGradient>

    <!-- Sea sunset (reflective, warm) -->
    <linearGradient id="seaFar11a" x1="0%" y1="0%" x2="0%" y2="100%">
      <stop offset="0%" stop-color="#FFB570"/>
      <stop offset="100%" stop-color="#A86040"/>
    </linearGradient>
    <linearGradient id="seaMid11a" x1="0%" y1="0%" x2="0%" y2="100%">
      <stop offset="0%" stop-color="#7A3A2A"/>
      <stop offset="100%" stop-color="#3A1E20"/>
    </linearGradient>
    <linearGradient id="seaNear11a" x1="0%" y1="0%" x2="0%" y2="100%">
      <stop offset="0%" stop-color="#2A1820"/>
      <stop offset="100%" stop-color="#0A0508"/>
    </linearGradient>

    <radialGradient id="hullSunset" cx="30%" cy="25%" r="100%">
      <stop offset="0%" stop-color="#2A1812"/>
      <stop offset="55%" stop-color="#160B08"/>
      <stop offset="100%" stop-color="#04020A"/>
    </radialGradient>
    <radialGradient id="sailSunset" cx="50%" cy="20%" r="100%">
      <stop offset="0%" stop-color="#FFE0B0"/>
      <stop offset="50%" stop-color="#FF8A3D"/>
      <stop offset="100%" stop-color="#7A3A2A"/>
    </radialGradient>

    <radialGradient id="vignette11a" cx="50%" cy="55%" r="68%">
      <stop offset="55%" stop-color="#000" stop-opacity="0"/>
      <stop offset="100%" stop-color="#000" stop-opacity="0.4"/>
    </radialGradient>
  </defs>

  <!-- SKY -->
  <rect width="1920" height="700" fill="url(#sunsetSky)"/>
  <rect width="1920" height="700" fill="#A86040" opacity="0.06" filter="url(#painterly11a)"/>

  <!-- DECORATIVE MANDALA tramonto -->
  <g transform="translate(960 480)" opacity="0.3" filter="url(#haze11a)">
    <circle r="400" fill="none" stroke="#FF6B1A" stroke-width="1.1" stroke-dasharray="1,9"/>
    <circle r="344" fill="none" stroke="#FF6B1A" stroke-width="1.3" stroke-dasharray="3,7"/>
    <circle r="288" fill="none" stroke="#FF6B1A" stroke-width="1" stroke-dasharray="1,5"/>
    <circle r="232" fill="none" stroke="#FF6B1A" stroke-width="1.5" stroke-dasharray="4,10"/>
    <g stroke="#FF6B1A" stroke-width="1.4" stroke-linecap="round">
      <line x1="0" y1="-376" x2="0" y2="-358"/>
      <line x1="188" y1="-326" x2="178" y2="-310"/>
      <line x1="326" y1="-188" x2="310" y2="-178"/>
      <line x1="376" y1="0" x2="358" y2="0"/>
      <line x1="326" y1="188" x2="310" y2="178"/>
      <line x1="188" y1="326" x2="178" y2="310"/>
      <line x1="0" y1="376" x2="0" y2="358"/>
      <line x1="-188" y1="326" x2="-178" y2="310"/>
      <line x1="-326" y1="188" x2="-310" y2="178"/>
      <line x1="-376" y1="0" x2="-358" y2="0"/>
      <line x1="-326" y1="-188" x2="-310" y2="-178"/>
      <line x1="-188" y1="-326" x2="-178" y2="-310"/>
    </g>
    <animateTransform attributeName="transform" type="rotate"
                      values="0 0 0;360 0 0" dur="180s" repeatCount="indefinite"
                      additive="sum"/>
  </g>

  <!-- SUN -->
  <circle cx="920" cy="660" r="140" fill="url(#sunCore)" filter="url(#sunGlow11a)">
    <animate attributeName="r" values="140;160;140" dur="6s" repeatCount="indefinite"
             calcMode="spline" keyTimes="0;0.5;1" keySplines="0.42 0 0.58 1;0.42 0 0.58 1"/>
  </circle>
  <circle cx="920" cy="660" r="80" fill="#FFE0B0" opacity="0.95"/>
  <circle cx="920" cy="660" r="60" fill="#FFFFFF" opacity="0.7"/>

  <!-- HORIZON HAZE -->
  <rect x="0" y="688" width="1920" height="24" fill="#FF8A3D" opacity="0.45" filter="url(#haze11a)"/>

  <!-- SEA FAR (with horizon reflection of sun) -->
  <rect x="0" y="700" width="1920" height="120" fill="url(#seaFar11a)"/>
  <!-- Sun reflection column on water (Disney sparkle) -->
  <path d="M 880 700 Q 920 760 940 820 Q 920 880 880 820 Q 860 760 880 700 Z"
        fill="#FFE0B0" opacity="0.7" filter="url(#softBlur11a)"/>
  <g stroke="#FFE0B0" stroke-width="1.4" stroke-linecap="round" fill="none" opacity="0.55">
    <path d="M 60 738 Q 160 730 240 738 T 400 738 T 560 736 T 720 742"/>
    <path d="M 1180 760 Q 1280 752 1360 760 T 1520 760 T 1680 758 T 1840 764"/>
  </g>

  <!-- =====================================================
       3 NAVI FERME (distinte, in lontananza, lato sinistro)
       NEW STORYTELLING: diverse fasi di chi non si muove
       Ship A: vele ammainate (estrema sinistra)
       Ship B: vele a metà (centro-sinistra)
       Ship C: completamente immobile, vele giù totalmente (vicino-sinistra)
       ===================================================== -->

  <!-- SHIP A — vele AMMAINATE (lontana, piccola, sinistra estrema) -->
  <g transform="translate(180 720)" opacity="0.65" filter="url(#haze11a)">
    <!-- hull -->
    <path d="M -40 8 C -32 18 -10 22 10 22 C 28 22 42 18 46 10 L 42 -2
             C 28 2 0 4 -22 2 C -32 0 -40 -2 -38 -2 Z"
          fill="#04020A" stroke="#04020A" stroke-width="2" stroke-linejoin="round"/>
    <!-- 2 bare masts (no sails — ammainate = furled) -->
    <path d="M -16 -2 L -16 -36" stroke="#04020A" stroke-width="2.4" stroke-linecap="round" fill="none"/>
    <path d="M 12 -2 L 12 -40" stroke="#04020A" stroke-width="2.4" stroke-linecap="round" fill="none"/>
    <!-- yard arms (furled sails as small bundles) -->
    <path d="M -22 -26 L -10 -26" stroke="#04020A" stroke-width="2" stroke-linecap="round" fill="none"/>
    <path d="M 6 -30 L 18 -30" stroke="#04020A" stroke-width="2" stroke-linecap="round" fill="none"/>
    <!-- micro-furl bundle -->
    <ellipse cx="-16" cy="-26" rx="6" ry="2" fill="#3A2A1A" opacity="0.7"/>
    <ellipse cx="12" cy="-30" rx="6" ry="2" fill="#3A2A1A" opacity="0.7"/>
  </g>

  <!-- SHIP B — vele A METÀ (media distanza, sinistra) -->
  <g transform="translate(440 700)" opacity="0.78" filter="url(#haze11a)">
    <!-- hull -->
    <path d="M -56 12 C -42 26 -14 30 14 30 C 38 30 58 26 64 14 L 60 -2
             C 40 4 0 6 -32 4 C -46 2 -56 -2 -54 -2 Z"
          fill="#04020A" stroke="#04020A" stroke-width="2.5" stroke-linejoin="round"/>
    <!-- 2 masts -->
    <path d="M -22 -2 L -22 -56" stroke="#04020A" stroke-width="3" stroke-linecap="round" fill="none"/>
    <path d="M 16 -2 L 16 -68" stroke="#04020A" stroke-width="3" stroke-linecap="round" fill="none"/>
    <!-- HALF sails (only bottom half, like dropped/lowered) -->
    <path d="M -22 -22 C -2 -18 14 -14 22 -2 C 16 8 -4 10 -22 4 C -28 -6 -26 -16 -22 -22 Z"
          fill="#6F6256" stroke="#04020A" stroke-width="2" stroke-linejoin="round" opacity="0.85"/>
    <path d="M 16 -34 C 32 -30 44 -26 50 -14 C 44 -4 26 -2 14 -8 C 8 -18 12 -28 16 -34 Z"
          fill="#6F6256" stroke="#04020A" stroke-width="2" stroke-linejoin="round" opacity="0.85"/>
    <!-- horizontal yard arms (clearly only half-deployed) -->
    <path d="M -28 -22 L -16 -22" stroke="#04020A" stroke-width="1.8" stroke-linecap="round" fill="none"/>
    <path d="M 10 -34 L 22 -34" stroke="#04020A" stroke-width="1.8" stroke-linecap="round" fill="none"/>
  </g>

  <!-- SHIP C — COMPLETAMENTE IMMOBILE, vele giù totalmente, scafo inclinato (più vicina) -->
  <g transform="translate(680 690) rotate(2)" opacity="0.85" filter="url(#haze11a)">
    <!-- hull (slightly tilted = giving up vibe) -->
    <path d="M -64 14 C -48 30 -16 34 16 34 C 44 34 66 30 72 18 L 68 -2
             C 46 4 0 6 -36 4 C -52 2 -64 -2 -62 -2 Z"
          fill="#04020A" stroke="#04020A" stroke-width="3" stroke-linejoin="round"/>
    <!-- 3 masts (all bare, no sails at all) -->
    <path d="M -30 -2 L -30 -64" stroke="#04020A" stroke-width="3" stroke-linecap="round" fill="none"/>
    <path d="M 0 -2 L 0 -80" stroke="#04020A" stroke-width="3" stroke-linecap="round" fill="none"/>
    <path d="M 30 -2 L 30 -68" stroke="#04020A" stroke-width="3" stroke-linecap="round" fill="none"/>
    <!-- empty cross-yards (totally furled, no sail visible) -->
    <path d="M -42 -34 L -18 -34" stroke="#04020A" stroke-width="2" stroke-linecap="round" fill="none"/>
    <path d="M -12 -44 L 12 -44" stroke="#04020A" stroke-width="2" stroke-linecap="round" fill="none"/>
    <path d="M 18 -36 L 42 -36" stroke="#04020A" stroke-width="2" stroke-linecap="round" fill="none"/>
    <!-- tiny figure standing immobile on deck (silhouette) -->
    <ellipse cx="-4" cy="-6" rx="2.5" ry="6" fill="#04020A"/>
  </g>

  <!-- SEA MID -->
  <path d="M 0 820 Q 240 802 480 820 T 960 820 T 1440 820 T 1920 824 L 1920 940 L 0 940 Z"
        fill="url(#seaMid11a)"/>
  <!-- Sun reflection mid (broken into sparkles) -->
  <g stroke="#FFB570" stroke-width="2.2" stroke-linecap="round" fill="none" opacity="0.7">
    <path d="M 860 840 Q 920 836 980 840"/>
    <path d="M 860 870 Q 920 866 980 870"/>
    <path d="M 880 900 Q 920 896 960 900"/>
  </g>
  <g stroke="#7A3A2A" stroke-width="2" stroke-linecap="round" fill="none" opacity="0.55">
    <path d="M 100 852 Q 220 844 340 856 T 580 854"/>
    <path d="M 1240 864 Q 1360 856 1480 868 T 1720 866"/>
  </g>

  <!-- SEA NEAR -->
  <path d="M 0 940 Q 240 924 480 940 T 960 940 T 1440 940 T 1920 940 L 1920 1080 L 0 1080 Z"
        fill="url(#seaNear11a)"/>
  <g stroke="#5A2A20" stroke-width="2.4" stroke-linecap="round" fill="none" opacity="0.7">
    <path d="M 60 980 Q 200 968 340 982 Q 480 998 620 982 T 880 984"/>
    <path d="M 1040 992 Q 1180 980 1320 994 Q 1460 1010 1600 994 T 1860 996"/>
  </g>

  <!-- ============== MAIN SHIP (POV poppa, vele gonfie, salpa) ============== -->
  <g transform="translate(1240 660)">
    <g>
      <!-- pitch breathing -->
      <animateTransform attributeName="transform" type="translate"
                        values="0 0; 6 -4; 0 0; -6 3; 0 0" dur="9s" repeatCount="indefinite"
                        calcMode="spline" keyTimes="0;0.25;0.5;0.75;1"
                        keySplines="0.42 0 0.58 1;0.42 0 0.58 1;0.42 0 0.58 1;0.42 0 0.58 1"/>

      <ellipse cx="0" cy="260" rx="280" ry="20" fill="#000" opacity="0.55" filter="url(#softBlur11a)"/>

      <!-- HULL (line of action gentle C — Bezier) -->
      <path d="M -260 220 C -220 252 -150 268 -40 274 C 80 280 200 274 280 256
               C 320 248 340 236 342 224 L 320 180 C 280 192 180 200 60 200
               C -80 200 -200 192 -260 178 Z"
            fill="url(#hullSunset)" stroke="#04020A" stroke-width="5" stroke-linejoin="round"/>
      <!-- internal plank -->
      <path d="M -240 200 C -130 206 0 208 130 206 C 220 204 280 200 296 196" fill="none"
            stroke="#04020A" stroke-width="3" stroke-linecap="round" opacity="0.55"/>
      <!-- detail caulking -->
      <path d="M -200 220 C -100 224 0 226 100 224 C 180 222 240 220 270 218" fill="none"
            stroke="#04020A" stroke-width="1.5" stroke-linecap="round" opacity="0.4"/>
      <!-- WARM rim light (sunset hits hull top) -->
      <path d="M -260 178 C -120 188 20 192 160 188 C 240 186 300 182 326 178" fill="none"
            stroke="#FFB570" stroke-width="1.8" stroke-linecap="round" opacity="0.85"/>

      <!-- Mast main -->
      <path d="M -6 180 C -4 80 -2 -40 0 -160" fill="none"
            stroke="#04020A" stroke-width="5" stroke-linecap="round"/>
      <!-- Mast fore -->
      <path d="M -130 180 C -132 100 -134 20 -136 -90" fill="none"
            stroke="#04020A" stroke-width="4.5" stroke-linecap="round"/>

      <!-- MAIN SAIL (full, billowing, Bezier) -->
      <path d="M -10 -158 C 80 -144 156 -116 188 -52 C 196 -16 178 16 132 28
               C 86 36 30 32 -10 26 C -28 -20 -22 -98 -10 -158 Z"
            fill="url(#sailSunset)" stroke="#04020A" stroke-width="4.5" stroke-linejoin="round"/>
      <!-- fold lines (variable weight) -->
      <g stroke="#7A3A2A" stroke-linecap="round" fill="none">
        <path d="M 16 -144 C 50 -110 80 -64 86 -8" stroke-width="2.4" opacity="0.6"/>
        <path d="M 60 -130 C 96 -90 124 -38 130 18" stroke-width="1.8" opacity="0.5"/>
        <path d="M 110 -106 C 142 -66 168 -24 178 22" stroke-width="1.4" opacity="0.4"/>
      </g>
      <!-- WARM rim light top edge -->
      <path d="M -10 -158 C 70 -150 144 -126 184 -78" fill="none"
            stroke="#FFE0B0" stroke-width="1.8" stroke-linecap="round" opacity="0.85"/>

      <!-- FORESAIL (full) -->
      <path d="M -136 -88 C -90 -76 -54 -56 -36 -22 C -28 4 -50 24 -84 26
               C -116 28 -142 20 -152 0 C -154 -28 -148 -62 -136 -88 Z"
            fill="url(#sailSunset)" stroke="#04020A" stroke-width="3.5" stroke-linejoin="round"/>
      <g stroke="#7A3A2A" stroke-linecap="round" fill="none" opacity="0.55">
        <path d="M -116 -78 C -90 -56 -76 -28 -72 6" stroke-width="1.8"/>
        <path d="M -88 -64 C -68 -42 -58 -16 -54 14" stroke-width="1.5"/>
      </g>
      <path d="M -136 -88 C -98 -80 -64 -68 -42 -42" fill="none"
            stroke="#FFE0B0" stroke-width="1.4" stroke-linecap="round" opacity="0.85"/>

      <!-- RIGGING -->
      <g stroke="#04020A" stroke-width="1.2" stroke-linecap="round" fill="none" opacity="0.7">
        <path d="M -6 -160 C -80 -100 -160 -10 -260 180"/>
        <path d="M 0 -160 C 80 -100 180 -10 320 180"/>
        <path d="M -136 -90 C -180 -40 -220 30 -260 180"/>
        <path d="M -136 -90 C -100 -40 -60 30 -20 180"/>
      </g>

      <!-- ORANGE FLAG (sventola) -->
      <path d="M 2 -168 Q 40 -180 70 -170 Q 80 -160 70 -150 Q 40 -158 2 -154 Z"
            fill="#FF6B1A" stroke="#04020A" stroke-width="1.8" stroke-linejoin="round">
        <animateTransform attributeName="transform" type="scale"
                          values="1 1;1.06 0.94;1 1" dur="2.6s" repeatCount="indefinite"
                          calcMode="spline" keyTimes="0;0.5;1" keySplines="0.42 0 0.58 1;0.42 0 0.58 1"/>
      </path>

      <!-- ===== CREW (poppa back-view, 5 silhouette) ===== -->
      <!-- CAPTAIN center, line of action S (dynamic, dominant) -->
      <g transform="translate(40 150)">
        <!-- legs (asymmetric, weight on right) -->
        <path d="M -8 0 C -10 30 -16 60 -20 90" fill="none" stroke="#04020A" stroke-width="11" stroke-linecap="round"/>
        <path d="M 10 0 C 12 32 18 64 22 92" fill="none" stroke="#04020A" stroke-width="11" stroke-linecap="round"/>
        <!-- torso (S curve, shoulders left, hips right = contrapposto) -->
        <path d="M -22 0 C -20 -30 -16 -56 -10 -78 C -4 -86 4 -86 10 -78
                 C 14 -56 16 -30 18 0 C 12 4 -16 4 -22 0 Z"
              fill="url(#hullSunset)" stroke="#04020A" stroke-width="3.5" stroke-linejoin="round"/>
        <!-- head -->
        <ellipse cx="2" cy="-92" rx="14" ry="16" fill="url(#hullSunset)" stroke="#04020A" stroke-width="3"/>
        <!-- tricorn hat -->
        <path d="M -14 -104 C -4 -120 16 -120 22 -104 C 16 -100 -14 -100 -14 -104 Z"
              fill="#04020A" stroke="#04020A" stroke-width="2"/>
        <!-- right arm pointing forward to horizon -->
        <path d="M 16 -50 C 32 -60 50 -68 64 -76" fill="none" stroke="#04020A" stroke-width="8" stroke-linecap="round"/>
        <!-- WARM rim light (sunset glow on captain) -->
        <path d="M -18 -10 C -12 -50 -8 -80 -4 -90" fill="none"
              stroke="#FFB570" stroke-width="1.6" stroke-linecap="round" opacity="0.7"/>
      </g>

      <!-- CREW 1 (left of captain, line of action I — straight, attentive) -->
      <g transform="translate(-20 150)">
        <path d="M -6 0 C -6 30 -10 60 -12 90" fill="none" stroke="#04020A" stroke-width="9" stroke-linecap="round"/>
        <path d="M 6 0 C 6 30 10 60 12 90" fill="none" stroke="#04020A" stroke-width="9" stroke-linecap="round"/>
        <path d="M -16 0 C -14 -26 -10 -50 -4 -70 C 0 -76 4 -76 8 -70
                 C 12 -50 14 -26 14 0 C 8 4 -12 4 -16 0 Z"
              fill="url(#hullSunset)" stroke="#04020A" stroke-width="3.5" stroke-linejoin="round"/>
        <ellipse cx="2" cy="-82" rx="12" ry="14" fill="url(#hullSunset)" stroke="#04020A" stroke-width="3"/>
        <!-- bandana -->
        <path d="M -10 -88 C -2 -94 12 -92 16 -84 C 12 -80 -10 -82 -10 -88 Z"
              fill="#6F8390" stroke="#04020A" stroke-width="2"/>
      </g>

      <!-- CREW 2 (right of captain, line of action C — leaning slightly forward) -->
      <g transform="translate(96 152)">
        <path d="M -6 0 C -8 30 -14 60 -18 90" fill="none" stroke="#04020A" stroke-width="9" stroke-linecap="round"/>
        <path d="M 8 0 C 10 30 16 60 20 90" fill="none" stroke="#04020A" stroke-width="9" stroke-linecap="round"/>
        <path d="M -16 0 C -10 -26 -4 -48 2 -68 C 6 -74 12 -72 16 -64
                 C 18 -42 20 -22 22 0 C 14 4 -12 4 -16 0 Z"
              fill="url(#hullSunset)" stroke="#04020A" stroke-width="3.5" stroke-linejoin="round"/>
        <ellipse cx="8" cy="-78" rx="12" ry="14" fill="url(#hullSunset)" stroke="#04020A" stroke-width="3"/>
        <!-- cap -->
        <path d="M -2 -90 C 8 -98 22 -94 26 -86 C 22 -82 0 -84 -2 -90 Z"
              fill="#3F2810" stroke="#04020A" stroke-width="2"/>
      </g>

      <!-- CREW 3 (far left, smaller — perspective) -->
      <g transform="translate(-90 160) scale(0.85)">
        <path d="M -6 0 C -6 28 -10 56 -12 84" fill="none" stroke="#04020A" stroke-width="9" stroke-linecap="round"/>
        <path d="M 6 0 C 6 28 10 56 12 84" fill="none" stroke="#04020A" stroke-width="9" stroke-linecap="round"/>
        <path d="M -14 0 C -12 -24 -8 -46 -2 -64 C 2 -70 4 -70 8 -64
                 C 12 -46 14 -24 14 0 C 8 4 -10 4 -14 0 Z"
              fill="url(#hullSunset)" stroke="#04020A" stroke-width="3.5" stroke-linejoin="round"/>
        <ellipse cx="2" cy="-76" rx="11" ry="13" fill="url(#hullSunset)" stroke="#04020A" stroke-width="3"/>
      </g>

      <!-- CREW 4 (far right, slightly turned) -->
      <g transform="translate(160 156) scale(0.88)">
        <path d="M -6 0 C -8 28 -14 56 -18 86" fill="none" stroke="#04020A" stroke-width="9" stroke-linecap="round"/>
        <path d="M 8 0 C 10 28 16 56 20 86" fill="none" stroke="#04020A" stroke-width="9" stroke-linecap="round"/>
        <path d="M -16 0 C -10 -24 -4 -44 2 -62 C 6 -68 10 -66 12 -58
                 C 16 -40 18 -20 20 0 C 12 4 -12 4 -16 0 Z"
              fill="url(#hullSunset)" stroke="#04020A" stroke-width="3.5" stroke-linejoin="round"/>
        <ellipse cx="6" cy="-72" rx="11" ry="13" fill="url(#hullSunset)" stroke="#04020A" stroke-width="3"/>
      </g>
    </g>
  </g>

  <!-- VIGNETTE -->
  <rect width="1920" height="1080" fill="url(#vignette11a)" pointer-events="none"/>
</svg>
