<?xml version="1.0" encoding="UTF-8"?>
<svg xmlns="http://www.w3.org/2000/svg" viewBox="0 0 1920 1080" preserveAspectRatio="xMidYMid slice" role="img" aria-label="Scene 02B — Macro mani al lavoro (Cartoon Saloon)">
  <title>Scene 02B — Mani che fanno nodi, tirano cime, scrivono sul registro</title>
  <desc>Cartoon Saloon: macro tre paia di mani weathered in close-up sequenziale su ponte di legno con grain. A sinistra mano che stringe nodo savoia con cima di canapa, al centro mano che tira cima passando per anello brass, a destra mano che scrive sul registro con penna d'oca. God rays soft da alto-destra + dust particles. Vignette finale. Zero arancione, zero volti, zero testo.</desc>

  <defs>
    <linearGradient id="s02b_bg" x1="0%" y1="0%" x2="0%" y2="100%">
      <stop offset="0%" stop-color="#3E2C18"/>
      <stop offset="55%" stop-color="#2A1D10"/>
      <stop offset="100%" stop-color="#15100A"/>
    </linearGradient>
    <linearGradient id="s02b_deck" x1="0%" y1="0%" x2="0%" y2="100%">
      <stop offset="0%" stop-color="#8B6B3F"/>
      <stop offset="55%" stop-color="#5C4226"/>
      <stop offset="100%" stop-color="#2E1F10"/>
    </linearGradient>
    <linearGradient id="s02b_deckShadow" x1="0%" y1="0%" x2="0%" y2="100%">
      <stop offset="0%" stop-color="#1A0F08" stop-opacity="0"/>
      <stop offset="100%" stop-color="#1A0F08" stop-opacity="0.7"/>
    </linearGradient>
    <linearGradient id="s02b_skin" x1="0%" y1="0%" x2="0%" y2="100%">
      <stop offset="0%" stop-color="#8B6E4A"/>
      <stop offset="60%" stop-color="#5C4228"/>
      <stop offset="100%" stop-color="#2E1F10"/>
    </linearGradient>
    <linearGradient id="s02b_skinRim" x1="100%" y1="0%" x2="0%" y2="0%">
      <stop offset="0%" stop-color="#F5E8C8" stop-opacity="0.55"/>
      <stop offset="50%" stop-color="#F5E8C8" stop-opacity="0"/>
    </linearGradient>
    <linearGradient id="s02b_rope" x1="0%" y1="0%" x2="0%" y2="100%">
      <stop offset="0%" stop-color="#D2B785"/>
      <stop offset="55%" stop-color="#9C7E50"/>
      <stop offset="100%" stop-color="#5C4226"/>
    </linearGradient>
    <linearGradient id="s02b_paper" x1="0%" y1="0%" x2="0%" y2="100%">
      <stop offset="0%" stop-color="#F2E8D6"/>
      <stop offset="60%" stop-color="#E0CFA8"/>
      <stop offset="100%" stop-color="#A88B58"/>
    </linearGradient>
    <linearGradient id="s02b_rays" x1="100%" y1="0%" x2="20%" y2="100%">
      <stop offset="0%" stop-color="#FFE9C2" stop-opacity="0.45"/>
      <stop offset="60%" stop-color="#FFE9C2" stop-opacity="0.10"/>
      <stop offset="100%" stop-color="#FFE9C2" stop-opacity="0"/>
    </linearGradient>
    <filter id="s02b_woodGrain" x="0%" y="0%" width="100%" height="100%">
      <feTurbulence type="fractalNoise" baseFrequency="0.04 0.4" numOctaves="3" seed="9"/>
      <feColorMatrix values="0 0 0 0 0.30  0 0 0 0 0.20  0 0 0 0 0.10  0 0 0 0.55 0"/>
      <feComposite in2="SourceGraphic" operator="in"/>
    </filter>
    <filter id="s02b_painterly" x="-5%" y="-5%" width="110%" height="110%">
      <feTurbulence type="fractalNoise" baseFrequency="0.008" numOctaves="3" seed="21"/>
      <feDisplacementMap in="SourceGraphic" scale="6"/>
    </filter>
    <filter id="s02b_softGlow" x="-50%" y="-50%" width="200%" height="200%">
      <feGaussianBlur stdDeviation="3"/>
    </filter>
    <filter id="s02b_rayBlur" x="-50%" y="-50%" width="200%" height="200%">
      <feGaussianBlur stdDeviation="22"/>
    </filter>
    <filter id="s02b_inkBlur" x="-50%" y="-50%" width="200%" height="200%">
      <feGaussianBlur stdDeviation="0.8"/>
    </filter>
    <circle id="s02b_dust" r="2" fill="#FFE9C2" filter="url(#s02b_softGlow)"/>
    <radialGradient id="s02b_vig" cx="50%" cy="50%" r="78%">
      <stop offset="58%" stop-color="#000" stop-opacity="0"/>
      <stop offset="100%" stop-color="#000" stop-opacity="0.42"/>
    </radialGradient>
  </defs>

  <!-- BASE BACKGROUND -->
  <rect width="1920" height="1080" fill="url(#s02b_bg)"/>

  <!-- DECK macro con planks orizzontali -->
  <g>
    <rect x="0" y="0" width="1920" height="1080" fill="url(#s02b_deck)"/>
    <rect x="0" y="0" width="1920" height="1080" fill="url(#s02b_deck)" filter="url(#s02b_woodGrain)" opacity="0.7"/>
    <g stroke="#1A0F08" stroke-width="3" opacity="0.65">
      <line x1="0" y1="220" x2="1920" y2="232"/>
      <line x1="0" y1="520" x2="1920" y2="510"/>
      <line x1="0" y1="820" x2="1920" y2="836"/>
    </g>
    <g stroke="#1A0F08" stroke-width="2" opacity="0.55">
      <line x1="280" y1="0" x2="288" y2="220"/>
      <line x1="640" y1="232" x2="630" y2="520"/>
      <line x1="980" y1="0" x2="990" y2="220"/>
      <line x1="1180" y1="520" x2="1190" y2="820"/>
      <line x1="1480" y1="232" x2="1470" y2="520"/>
      <line x1="1640" y1="820" x2="1650" y2="1080"/>
    </g>
    <g fill="#8B6E3C" stroke="#2A1A0E" stroke-width="1">
      <circle cx="288" cy="226" r="5"/>
      <circle cx="640" cy="226" r="5"/>
      <circle cx="990" cy="226" r="5"/>
      <circle cx="1480" cy="226" r="5"/>
      <circle cx="630" cy="514" r="5"/>
      <circle cx="1180" cy="514" r="5"/>
      <circle cx="1470" cy="514" r="5"/>
      <circle cx="288" cy="828" r="5"/>
      <circle cx="990" cy="828" r="5"/>
      <circle cx="1190" cy="828" r="5"/>
      <circle cx="1640" cy="828" r="5"/>
    </g>
    <rect x="0" y="780" width="1920" height="300" fill="url(#s02b_deckShadow)"/>
  </g>

  <!-- GOD RAYS soft da alto-destra -->
  <g filter="url(#s02b_rayBlur)" opacity="0.65">
    <polygon points="1900,-50 1820,-50 1100,1080 880,1080" fill="url(#s02b_rays)"/>
    <polygon points="1700,-50 1620,-50 760,1080 540,1080" fill="url(#s02b_rays)" opacity="0.7"/>
    <polygon points="1480,-50 1400,-50 380,1080 200,1080" fill="url(#s02b_rays)" opacity="0.4"/>
  </g>

  <!-- ===================== MANO 1 (sinistra) — nodo savoia ===================== -->
  <g transform="translate(360 560)">
    <animateTransform attributeName="transform" type="translate"
      values="360 560; 360 558; 360 560; 360 559; 360 560"
      keyTimes="0;0.3;0.5;0.7;1" dur="5s" repeatCount="indefinite"/>

    <!-- Avambraccio (cappotto manica) -->
    <path d="M -180,160 L -120,300 L 60,300 L 120,160 L 60,80 L -120,80 Z" fill="#2A1A0E" stroke="#0A0805" stroke-width="2"/>
    <path d="M -180,160 L -150,180 L -120,80 L -160,72 Z" fill="#0A0805" opacity="0.7"/>
    <path d="M -120,80 L 60,80 L 70,60 L -130,60 Z" fill="#1A1008" stroke="#0A0805" stroke-width="1.5"/>
    <circle cx="-40" cy="160" r="5" fill="#8B6E3C" stroke="#1A1008" stroke-width="0.8"/>
    <circle cx="-40" cy="220" r="5" fill="#8B6E3C" stroke="#1A1008" stroke-width="0.8"/>

    <!-- POLSO -->
    <path d="M -110,60 L 40,60 L 50,30 L -120,30 Z" fill="url(#s02b_skin)" stroke="#1A0F08" stroke-width="1.5"/>

    <!-- MANO chiusa attorno al nodo -->
    <g>
      <path d="M -130,30 L 50,30 L 60,-30 L 30,-110 L -90,-110 L -140,-50 Z" fill="url(#s02b_skin)" stroke="#1A0F08" stroke-width="2"/>
      <path d="M -80,-110 L -94,-180 L -68,-186 L -54,-118 Z" fill="url(#s02b_skin)" stroke="#1A0F08" stroke-width="1.8"/>
      <path d="M -36,-110 L -42,-188 L -16,-194 L -10,-116 Z" fill="url(#s02b_skin)" stroke="#1A0F08" stroke-width="1.8"/>
      <path d="M 6,-110 L 8,-186 L 34,-182 L 32,-112 Z" fill="url(#s02b_skin)" stroke="#1A0F08" stroke-width="1.8"/>
      <path d="M 38,-100 L 52,-160 L 76,-148 L 60,-90 Z" fill="url(#s02b_skin)" stroke="#1A0F08" stroke-width="1.8"/>
      <path d="M -130,-10 L -200,-40 L -210,0 L -150,30 Z" fill="url(#s02b_skin)" stroke="#1A0F08" stroke-width="1.8"/>
      <path d="M -78,-140 Q -50,-150 -22,-142" fill="none" stroke="#1A0F08" stroke-width="1" opacity="0.7"/>
      <path d="M -22,-142 Q 6,-148 34,-138" fill="none" stroke="#1A0F08" stroke-width="1" opacity="0.7"/>
      <path d="M -60,-30 Q -20,-22 30,-26" fill="none" stroke="#1A0F08" stroke-width="0.8" opacity="0.55"/>
      <path d="M -100,-50 Q -110,-20 -100,10" fill="none" stroke="#1A0F08" stroke-width="0.8" opacity="0.55"/>
      <path d="M 30,-110 L 60,-30 L 50,30 L 56,30 L 70,-30 L 38,-110 Z" fill="url(#s02b_skinRim)"/>
    </g>

    <!-- NODO SAVOIA (cima di canapa) -->
    <g>
      <path d="M -10,-260 Q -20,-220 -8,-190 Q 4,-160 -4,-130" fill="none" stroke="url(#s02b_rope)" stroke-width="22" stroke-linecap="round"/>
      <path d="M -4,-130 Q -50,-110 -30,-70 Q -10,-30 30,-50 Q 60,-70 40,-120 Q 20,-150 -4,-130 Z" fill="none" stroke="url(#s02b_rope)" stroke-width="22" stroke-linecap="round"/>
      <path d="M 30,-50 Q 60,-20 50,30" fill="none" stroke="url(#s02b_rope)" stroke-width="22" stroke-linecap="round"/>
      <g stroke="#5C4226" stroke-width="1.2" fill="none" opacity="0.65">
        <path d="M -16,-250 Q -14,-244 -10,-240"/>
        <path d="M -14,-228 Q -12,-222 -8,-218"/>
        <path d="M -10,-206 Q -6,-200 -2,-198"/>
        <path d="M -6,-184 Q -2,-178 2,-176"/>
        <path d="M -16,-160 Q -10,-156 -6,-152"/>
        <path d="M -20,-140 Q -14,-136 -10,-132"/>
        <path d="M -40,-110 Q -36,-100 -32,-94"/>
        <path d="M -28,-80 Q -22,-76 -16,-74"/>
        <path d="M 8,-44 Q 14,-40 18,-36"/>
        <path d="M 24,-24 Q 30,-18 34,-12"/>
        <path d="M 42,-8 Q 46,0 48,8"/>
      </g>
      <g stroke="#9C7E50" stroke-width="1.5" stroke-linecap="round" opacity="0.85">
        <line x1="44" y1="30" x2="42" y2="50"/>
        <line x1="52" y1="32" x2="56" y2="54"/>
        <line x1="48" y1="32" x2="50" y2="56"/>
        <line x1="58" y1="30" x2="62" y2="48"/>
      </g>
    </g>
  </g>

  <!-- ===================== MANO 2 (centro) — tira la cima ===================== -->
  <g transform="translate(960 580)">
    <animateTransform attributeName="transform" type="translate"
      values="960 580; 960 576; 960 580; 962 578; 960 580"
      keyTimes="0;0.3;0.5;0.7;1" dur="4.5s" repeatCount="indefinite"/>

    <!-- Anello brass saldato sul ponte -->
    <g transform="translate(0 -260)">
      <ellipse cx="0" cy="0" rx="46" ry="14" fill="none" stroke="#8B6E3C" stroke-width="10"/>
      <ellipse cx="0" cy="0" rx="46" ry="14" fill="none" stroke="#3A2818" stroke-width="2"/>
      <ellipse cx="0" cy="0" rx="46" ry="14" fill="none" stroke="#C9A35C" stroke-width="2" opacity="0.6"/>
      <rect x="-58" y="6" width="116" height="14" fill="#3A2818" stroke="#0A0805" stroke-width="1.5"/>
      <circle cx="-44" cy="14" r="3" fill="#8B6E3C"/>
      <circle cx="44" cy="14" r="3" fill="#8B6E3C"/>
    </g>

    <!-- Cima tirata verso il basso -->
    <g>
      <path d="M -8,-260 Q -16,-220 -8,-180 Q 4,-140 -10,-100 Q -22,-60 -4,-20 Q 12,30 -2,80" fill="none" stroke="url(#s02b_rope)" stroke-width="24" stroke-linecap="round"/>
      <g stroke="#5C4226" stroke-width="1.3" fill="none" opacity="0.7">
        <path d="M -14,-240 Q -10,-234 -6,-232"/>
        <path d="M -12,-218 Q -8,-212 -4,-210"/>
        <path d="M -8,-196 Q -4,-190 0,-188"/>
        <path d="M -12,-172 Q -8,-166 -4,-164"/>
        <path d="M -16,-150 Q -12,-144 -8,-142"/>
        <path d="M -16,-128 Q -12,-122 -8,-120"/>
        <path d="M -20,-104 Q -16,-98 -12,-96"/>
        <path d="M -18,-80 Q -14,-74 -10,-72"/>
        <path d="M -12,-56 Q -8,-50 -4,-48"/>
        <path d="M -4,-32 Q 0,-26 4,-24"/>
        <path d="M 6,-8 Q 10,-2 14,0"/>
        <path d="M 8,16 Q 12,22 14,26"/>
        <path d="M 4,40 Q 8,46 10,50"/>
        <path d="M -2,64 Q 2,70 4,74"/>
      </g>
    </g>

    <!-- Avambraccio -->
    <path d="M -200,200 L -120,360 L 80,360 L 140,200 L 80,100 L -120,100 Z" fill="#2A1A0E" stroke="#0A0805" stroke-width="2"/>
    <path d="M -120,100 L 80,100 L 90,80 L -130,80 Z" fill="#1A1008" stroke="#0A0805" stroke-width="1.5"/>
    <circle cx="-30" cy="200" r="5" fill="#8B6E3C" stroke="#1A1008" stroke-width="0.8"/>
    <circle cx="-30" cy="270" r="5" fill="#8B6E3C" stroke="#1A1008" stroke-width="0.8"/>

    <path d="M -110,80 L 60,80 L 70,40 L -120,40 Z" fill="url(#s02b_skin)" stroke="#1A0F08" stroke-width="1.5"/>

    <g>
      <path d="M -120,40 L 70,40 L 90,-30 L 50,-100 L -90,-100 L -140,-40 Z" fill="url(#s02b_skin)" stroke="#1A0F08" stroke-width="2"/>
      <path d="M -80,-100 L -100,-160 L -70,-168 L -50,-104 Z" fill="url(#s02b_skin)" stroke="#1A0F08" stroke-width="1.8"/>
      <path d="M -36,-100 L -46,-172 L -16,-176 L -8,-106 Z" fill="url(#s02b_skin)" stroke="#1A0F08" stroke-width="1.8"/>
      <path d="M 6,-100 L 4,-170 L 32,-166 L 32,-104 Z" fill="url(#s02b_skin)" stroke="#1A0F08" stroke-width="1.8"/>
      <path d="M 42,-92 L 50,-150 L 76,-138 L 64,-86 Z" fill="url(#s02b_skin)" stroke="#1A0F08" stroke-width="1.8"/>
      <path d="M -130,-20 L -206,-50 L -212,-10 L -140,18 Z" fill="url(#s02b_skin)" stroke="#1A0F08" stroke-width="1.8"/>
      <ellipse cx="60" cy="-128" rx="10" ry="5" fill="#8B6E3C" stroke="#3A2818" stroke-width="1.2"/>
      <path d="M -78,-130 Q -50,-138 -22,-132" fill="none" stroke="#1A0F08" stroke-width="1.2" opacity="0.75"/>
      <path d="M -22,-132 Q 6,-138 34,-128" fill="none" stroke="#1A0F08" stroke-width="1.2" opacity="0.75"/>
      <path d="M -100,-20 Q -90,10 -80,30" fill="none" stroke="#1A0F08" stroke-width="0.9" opacity="0.6"/>
      <path d="M -60,-20 Q -40,0 -20,20" fill="none" stroke="#1A0F08" stroke-width="0.9" opacity="0.55"/>
      <path d="M 10,-30 Q 30,-10 50,10" fill="none" stroke="#1A0F08" stroke-width="0.9" opacity="0.55"/>
      <path d="M 50,-100 L 90,-30 L 70,40 L 78,40 L 100,-30 L 56,-100 Z" fill="url(#s02b_skinRim)"/>
    </g>
  </g>

  <!-- ===================== MANO 3 (destra) — scrive sul registro ===================== -->
  <g transform="translate(1500 600)">
    <animateTransform attributeName="transform" type="translate"
      values="1500 600; 1500 599; 1500 600; 1501 600; 1500 600"
      keyTimes="0;0.3;0.5;0.7;1" dur="4.2s" repeatCount="indefinite"/>

    <!-- REGISTRO libro mastro aperto -->
    <g transform="translate(-60 80)">
      <path d="M -340,80 L 340,80 L 320,180 L -320,180 Z" fill="#3A2818" stroke="#0A0805" stroke-width="2"/>
      <path d="M -320,80 L 320,80 L 310,60 L -310,60 Z" fill="#F2E8D6" stroke="#7E6940" stroke-width="1"/>
      <path d="M -310,60 L 310,60 L 300,40 L -300,40 Z" fill="url(#s02b_paper)" stroke="#7E6940" stroke-width="1.2"/>
      <path d="M -300,40 L 300,40 L 290,20 L -290,20 Z" fill="#F2E8D6" stroke="#7E6940" stroke-width="1"/>
      <path d="M -290,20 Q -150,-50 0,-80 Q 150,-50 290,20 L 280,40 L -280,40 Z" fill="url(#s02b_paper)" stroke="#7E6940" stroke-width="1.5"/>
      <line x1="0" y1="-80" x2="0" y2="180" stroke="#3A2818" stroke-width="2" opacity="0.7"/>
      <g stroke="#5C4226" stroke-width="0.8" opacity="0.6" fill="none">
        <path d="M -270,-30 Q -180,-50 -20,-65"/>
        <path d="M -270,-12 Q -180,-32 -20,-46"/>
        <path d="M -270,6 Q -180,-14 -20,-28"/>
        <path d="M -270,24 Q -180,4 -20,-10"/>
        <path d="M -270,42 Q -180,22 -20,8"/>
      </g>
      <g stroke="#5C4226" stroke-width="0.8" opacity="0.6" fill="none">
        <path d="M 20,-65 Q 180,-50 270,-30"/>
        <path d="M 20,-46 Q 180,-32 270,-12"/>
        <path d="M 20,-28 Q 180,-14 270,6"/>
        <path d="M 20,-10 Q 180,4 270,24"/>
        <path d="M 20,8 Q 180,22 270,42"/>
      </g>
      <g stroke="#1A0F08" stroke-width="1.4" fill="none" opacity="0.85" filter="url(#s02b_inkBlur)">
        <path d="M -250,-26 Q -240,-30 -228,-26 Q -216,-22 -204,-26 Q -188,-30 -168,-28 Q -140,-26 -110,-32"/>
        <path d="M -250,-8 Q -230,-12 -208,-8 Q -190,-4 -160,-10 Q -130,-16 -100,-12"/>
        <path d="M -250,10 Q -220,6 -180,12 Q -150,18 -120,10 Q -90,2 -60,8"/>
        <path d="M -250,28 Q -218,24 -180,30 Q -140,36 -100,28"/>
      </g>
      <circle cx="-200" cy="-44" r="2" fill="#0A0805" opacity="0.6"/>
      <ellipse cx="-140" cy="-2" rx="4" ry="2" fill="#0A0805" opacity="0.55"/>
      <circle cx="40" cy="-50" r="1.5" fill="#0A0805" opacity="0.55"/>
    </g>

    <!-- Avambraccio cappotto destra -->
    <path d="M 200,160 L 100,40 L -60,40 L -100,160 L -40,260 L 160,260 Z" fill="#2A1A0E" stroke="#0A0805" stroke-width="2"/>
    <path d="M 100,40 L -60,40 L -50,20 L 110,20 Z" fill="#1A1008" stroke="#0A0805" stroke-width="1.5"/>
    <circle cx="50" cy="160" r="5" fill="#8B6E3C" stroke="#1A1008" stroke-width="0.8"/>
    <circle cx="50" cy="220" r="5" fill="#8B6E3C" stroke="#1A1008" stroke-width="0.8"/>

    <path d="M -50,20 L 110,20 L 100,-20 L -60,-20 Z" fill="url(#s02b_skin)" stroke="#1A0F08" stroke-width="1.5"/>

    <g>
      <path d="M -60,-20 L 100,-20 L 90,-90 L 30,-150 L -80,-150 L -110,-90 Z" fill="url(#s02b_skin)" stroke="#1A0F08" stroke-width="2"/>
      <path d="M -50,-150 L -80,-240 L -50,-248 L -22,-156 Z" fill="url(#s02b_skin)" stroke="#1A0F08" stroke-width="1.8"/>
      <path d="M -10,-150 L -16,-220 L 14,-224 L 14,-156 Z" fill="url(#s02b_skin)" stroke="#1A0F08" stroke-width="1.8"/>
      <path d="M 24,-150 L 28,-210 L 54,-208 L 50,-156 Z" fill="url(#s02b_skin)" stroke="#1A0F08" stroke-width="1.8"/>
      <path d="M 60,-140 L 70,-190 L 90,-180 L 78,-138 Z" fill="url(#s02b_skin)" stroke="#1A0F08" stroke-width="1.8"/>
      <path d="M -90,-110 L -160,-128 L -158,-92 L -100,-78 Z" fill="url(#s02b_skin)" stroke="#1A0F08" stroke-width="1.8"/>

      <!-- Anello brass sul pollice -->
      <ellipse cx="-130" cy="-110" rx="10" ry="6" fill="#8B6E3C" stroke="#3A2818" stroke-width="1.2"/>
      <ellipse cx="-130" cy="-110" rx="10" ry="6" fill="none" stroke="#C9A35C" stroke-width="1" opacity="0.7"/>

      <path d="M -50,-180 Q -20,-186 10,-180" fill="none" stroke="#1A0F08" stroke-width="1" opacity="0.7"/>
      <path d="M 10,-180 Q 40,-184 70,-176" fill="none" stroke="#1A0F08" stroke-width="1" opacity="0.7"/>
      <path d="M -80,-60 Q -40,-50 0,-56" fill="none" stroke="#1A0F08" stroke-width="0.9" opacity="0.55"/>
      <path d="M 10,-50 Q 50,-44 90,-50" fill="none" stroke="#1A0F08" stroke-width="0.9" opacity="0.55"/>
      <path d="M 30,-150 L 90,-90 L 100,-20 L 108,-20 L 100,-90 L 36,-150 Z" fill="url(#s02b_skinRim)"/>
    </g>

    <!-- PENNA D'OCA -->
    <g transform="rotate(-32 -100 -200)">
      <animateTransform attributeName="transform" type="rotate"
        values="-32 -100 -200; -28 -100 -200; -32 -100 -200; -30 -100 -200; -32 -100 -200"
        keyTimes="0;0.3;0.5;0.7;1" dur="2.6s" repeatCount="indefinite"/>
      <path d="M -106,-204 L -100,-198 L -50,-110 L -56,-104 Z" fill="#3A2818" stroke="#0A0805" stroke-width="1"/>
      <path d="M -130,-310 Q -90,-280 -106,-204 Q -130,-228 -158,-300 Q -148,-308 -130,-310 Z" fill="#F2E8D6" stroke="#7E6940" stroke-width="1.2"/>
      <g stroke="#7E6940" stroke-width="0.7" opacity="0.7" fill="none">
        <path d="M -118,-300 L -110,-220"/>
        <path d="M -128,-296 L -116,-220"/>
        <path d="M -138,-292 L -122,-218"/>
        <path d="M -148,-288 L -130,-216"/>
      </g>
      <path d="M -50,-110 L -44,-104 L -38,-112 Z" fill="#1A0F08"/>
    </g>
  </g>

  <!-- DUST PARTICLES nei god rays -->
  <g>
    <use href="#s02b_dust" x="1500" y="200">
      <animate attributeName="y" values="200;620" dur="8s" repeatCount="indefinite"/>
      <animate attributeName="opacity" values="0;0.8;0.6;0" dur="8s" repeatCount="indefinite"/>
    </use>
    <use href="#s02b_dust" x="1280" y="120">
      <animate attributeName="y" values="120;640" dur="11s" repeatCount="indefinite"/>
      <animate attributeName="opacity" values="0;0.7;0.5;0" dur="11s" repeatCount="indefinite"/>
    </use>
    <use href="#s02b_dust" x="1100" y="220">
      <animate attributeName="y" values="220;700" dur="13s" repeatCount="indefinite"/>
      <animate attributeName="opacity" values="0;0.6;0.4;0" dur="13s" repeatCount="indefinite"/>
    </use>
    <use href="#s02b_dust" x="900" y="80">
      <animate attributeName="y" values="80;560" dur="9s" repeatCount="indefinite"/>
      <animate attributeName="opacity" values="0;0.7;0.5;0" dur="9s" repeatCount="indefinite"/>
    </use>
    <use href="#s02b_dust" x="720" y="180">
      <animate attributeName="y" values="180;640" dur="12s" repeatCount="indefinite"/>
      <animate attributeName="opacity" values="0;0.65;0.4;0" dur="12s" repeatCount="indefinite"/>
    </use>
    <use href="#s02b_dust" x="540" y="280">
      <animate attributeName="y" values="280;760" dur="10s" repeatCount="indefinite"/>
      <animate attributeName="opacity" values="0;0.55;0.35;0" dur="10s" repeatCount="indefinite"/>
    </use>
    <use href="#s02b_dust" x="380" y="160">
      <animate attributeName="y" values="160;720" dur="14s" repeatCount="indefinite"/>
      <animate attributeName="opacity" values="0;0.55;0.35;0" dur="14s" repeatCount="indefinite"/>
    </use>
  </g>

  <!-- Painterly subtle overlay -->
  <rect width="1920" height="1080" fill="#F5EFE6" opacity="0.03" filter="url(#s02b_painterly)" pointer-events="none"/>

  <!-- VIGNETTE -->
  <rect width="1920" height="1080" fill="url(#s02b_vig)" pointer-events="none"/>
</svg>
