<?xml version="1.0" encoding="UTF-8"?>
<svg xmlns="http://www.w3.org/2000/svg" viewBox="0 0 1920 1080" preserveAspectRatio="xMidYMid slice" role="img" aria-label="Scene 06 — Sbarco sulla spiaggia (Cartoon Saloon)">
  <title>Scene 06 — Scialuppa che approda sulla spiaggia bianca dell'isola</title>
  <desc>Cartoon Saloon: spiaggia bianca in foreground con sand grain texture, onde leggere che lambiscono la scialuppa di legno con planks e remi, 4 silhouette di rematori back-view con cappotti e bandane, isola con formazioni rocciose blu-viola dietro come scena 05, mare 3-layer parallax slow, gabbiani distanti. Cyan dust pre-rivelazione. Vignette. Zero arancione, zero volti, zero testo.</desc>

  <defs>
    <linearGradient id="s06_sky" x1="0%" y1="0%" x2="0%" y2="100%">
      <stop offset="0%" stop-color="#CCD2D8"/>
      <stop offset="55%" stop-color="#B6BFC6"/>
      <stop offset="100%" stop-color="#98A2A9"/>
    </linearGradient>
    <linearGradient id="s06_cloudWhisp" x1="0%" y1="0%" x2="0%" y2="100%">
      <stop offset="0%" stop-color="#E0E5EA" stop-opacity="0.85"/>
      <stop offset="100%" stop-color="#C2C9D0" stop-opacity="0"/>
    </linearGradient>
    <linearGradient id="s06_islandFar" x1="0%" y1="0%" x2="0%" y2="100%">
      <stop offset="0%" stop-color="#8B7EB4"/>
      <stop offset="55%" stop-color="#65588E"/>
      <stop offset="100%" stop-color="#4A4070"/>
    </linearGradient>
    <linearGradient id="s06_islandNear" x1="0%" y1="0%" x2="0%" y2="100%">
      <stop offset="0%" stop-color="#7B6FA8"/>
      <stop offset="55%" stop-color="#574E84"/>
      <stop offset="100%" stop-color="#3D365E"/>
    </linearGradient>
    <linearGradient id="s06_seaFar" x1="0%" y1="0%" x2="0%" y2="100%">
      <stop offset="0%" stop-color="#7D919E"/><stop offset="100%" stop-color="#5A6F7E"/>
    </linearGradient>
    <linearGradient id="s06_seaMid" x1="0%" y1="0%" x2="0%" y2="100%">
      <stop offset="0%" stop-color="#5A6F7E"/><stop offset="100%" stop-color="#3F5A6E"/>
    </linearGradient>
    <linearGradient id="s06_seaClose" x1="0%" y1="0%" x2="0%" y2="100%">
      <stop offset="0%" stop-color="#3F5A6E"/><stop offset="100%" stop-color="#1F2E3C"/>
    </linearGradient>
    <linearGradient id="s06_sand" x1="0%" y1="0%" x2="0%" y2="100%">
      <stop offset="0%" stop-color="#F2E8D6"/>
      <stop offset="55%" stop-color="#E8DDC8"/>
      <stop offset="100%" stop-color="#C9B58E"/>
    </linearGradient>
    <linearGradient id="s06_sandShadow" x1="0%" y1="0%" x2="0%" y2="100%">
      <stop offset="0%" stop-color="#8B7050" stop-opacity="0"/>
      <stop offset="100%" stop-color="#8B7050" stop-opacity="0.42"/>
    </linearGradient>
    <linearGradient id="s06_wetSand" x1="0%" y1="0%" x2="0%" y2="100%">
      <stop offset="0%" stop-color="#A8BAC6" stop-opacity="0.55"/>
      <stop offset="100%" stop-color="#7D919E" stop-opacity="0.85"/>
    </linearGradient>
    <linearGradient id="s06_boat" x1="0%" y1="0%" x2="0%" y2="100%">
      <stop offset="0%" stop-color="#5C4226"/>
      <stop offset="100%" stop-color="#2A1A0E"/>
    </linearGradient>
    <linearGradient id="s06_char" x1="0%" y1="0%" x2="0%" y2="100%">
      <stop offset="0%" stop-color="#15100B"/>
      <stop offset="100%" stop-color="#020306"/>
    </linearGradient>
    <linearGradient id="s06_charRim" x1="100%" y1="0%" x2="0%" y2="0%">
      <stop offset="0%" stop-color="#B8AAD8" stop-opacity="0.55"/>
      <stop offset="50%" stop-color="#B8AAD8" stop-opacity="0"/>
    </linearGradient>
    <radialGradient id="s06_aura" cx="50%" cy="60%" r="55%">
      <stop offset="0%" stop-color="#B8AAD8" stop-opacity="0.42"/>
      <stop offset="55%" stop-color="#7B6FA8" stop-opacity="0.18"/>
      <stop offset="100%" stop-color="#574E84" stop-opacity="0"/>
    </radialGradient>
    <filter id="s06_sandGrain" x="0%" y="0%" width="100%" height="100%">
      <feTurbulence type="fractalNoise" baseFrequency="0.65" numOctaves="2" seed="13"/>
      <feColorMatrix values="0 0 0 0 0.55  0 0 0 0 0.42  0 0 0 0 0.25  0 0 0 0.35 0"/>
      <feComposite in2="SourceGraphic" operator="in"/>
    </filter>
    <filter id="s06_woodGrain" x="0%" y="0%" width="100%" height="100%">
      <feTurbulence type="fractalNoise" baseFrequency="0.04 0.4" numOctaves="3" seed="29"/>
      <feColorMatrix values="0 0 0 0 0.12  0 0 0 0 0.08  0 0 0 0 0.04  0 0 0 0.55 0"/>
      <feComposite in2="SourceGraphic" operator="in"/>
    </filter>
    <filter id="s06_painterly" x="-5%" y="-5%" width="110%" height="110%">
      <feTurbulence type="fractalNoise" baseFrequency="0.008" numOctaves="3" seed="37"/>
      <feDisplacementMap in="SourceGraphic" scale="6"/>
    </filter>
    <filter id="s06_dustGlow" x="-50%" y="-50%" width="200%" height="200%">
      <feGaussianBlur stdDeviation="3"/>
    </filter>
    <radialGradient id="s06_vig" cx="50%" cy="50%" r="80%">
      <stop offset="60%" stop-color="#000" stop-opacity="0"/>
      <stop offset="100%" stop-color="#000" stop-opacity="0.42"/>
    </radialGradient>
    <path id="s06_waveFar"  d="M 0,0 Q 140,-5 280,0 T 560,0 T 840,0 T 1120,0 T 1400,0 T 1680,0 T 1920,0 L 1920,30 L 0,30 Z"/>
    <path id="s06_waveMid"  d="M 0,0 Q 100,-10 200,0 T 400,0 T 600,0 T 800,0 T 1000,0 T 1200,0 T 1400,0 T 1600,0 T 1800,0 L 1920,0 L 1920,42 L 0,42 Z"/>
    <path id="s06_foamLine" d="M 0,0 Q 80,-4 160,0 T 320,0 T 480,0 T 640,0 T 800,0 T 960,0 T 1120,0 T 1280,0 T 1440,0 T 1600,0 T 1760,0 T 1920,0"/>
    <symbol id="s06_gull" viewBox="-12 -8 24 16">
      <path d="M -12,2 Q -6,-7 0,-1 Q 6,-7 12,2" fill="none" stroke="#3D365E" stroke-width="1.4" stroke-linecap="round">
        <animate attributeName="d"
          values="M -12,2 Q -6,-7 0,-1 Q 6,-7 12,2;
                  M -12,-1 Q -6,2 0,-1 Q 6,2 12,-1;
                  M -12,2 Q -6,-7 0,-1 Q 6,-7 12,2"
          dur="1.8s" repeatCount="indefinite"/>
      </path>
    </symbol>
    <circle id="s06_dustCyan" r="2.5" fill="#D0C5F0" filter="url(#s06_dustGlow)"/>
  </defs>

  <!-- SKY -->
  <rect x="0" y="0" width="1920" height="560" fill="url(#s06_sky)"/>
  <g opacity="0.85">
    <ellipse cx="320" cy="180" rx="380" ry="42" fill="url(#s06_cloudWhisp)" filter="url(#s06_painterly)"/>
    <ellipse cx="1080" cy="140" rx="460" ry="38" fill="url(#s06_cloudWhisp)" filter="url(#s06_painterly)"/>
    <ellipse cx="1640" cy="200" rx="320" ry="38" fill="url(#s06_cloudWhisp)" filter="url(#s06_painterly)"/>
    <ellipse cx="780" cy="280" rx="540" ry="32" fill="url(#s06_cloudWhisp)" opacity="0.7" filter="url(#s06_painterly)"/>
  </g>

  <!-- AURA dell'isola -->
  <ellipse cx="960" cy="500" rx="720" ry="240" fill="url(#s06_aura)"/>

  <!-- ISOLA (formazioni rocciose blu-viola) -->
  <g>
    <path d="M 280,540 L 380,460 L 520,440 L 680,420 L 860,410 L 1040,420 L 1240,430 L 1420,445 L 1560,470 L 1660,510 L 1660,580 L 280,580 Z"
          fill="url(#s06_islandFar)" stroke="#3A335A" stroke-width="1.8" stroke-linejoin="round" opacity="0.85"/>
    <path d="M 420,560 L 520,460 L 600,420 L 700,380 L 800,340 L 900,318 L 1020,320 L 1140,350 L 1240,390 L 1320,440 L 1400,500 L 1460,580 L 420,580 Z"
          fill="url(#s06_islandNear)" stroke="#2A2444" stroke-width="2" stroke-linejoin="round"/>
    <polygon points="540,540 580,460 620,540" fill="#544A7C" stroke="#2A2444" stroke-width="1.5"/>
    <polygon points="640,500 680,420 720,500" fill="#574E84" stroke="#2A2444" stroke-width="1.5"/>
    <polygon points="1220,540 1260,470 1300,540" fill="#544A7C" stroke="#2A2444" stroke-width="1.5"/>
    <polygon points="1300,520 1340,440 1380,520" fill="#574E84" stroke="#2A2444" stroke-width="1.5"/>

    <g transform="translate(740 340)">
      <line x1="0" y1="0" x2="0" y2="52" stroke="#2A2444" stroke-width="2.5"/>
      <path d="M 0,0 Q -22,-14 -42,4" fill="none" stroke="#574E84" stroke-width="2.5" stroke-linecap="round"/>
      <path d="M 0,0 Q 22,-14 42,4" fill="none" stroke="#574E84" stroke-width="2.5" stroke-linecap="round"/>
      <path d="M 0,5 Q -26,5 -38,28" fill="none" stroke="#574E84" stroke-width="2.5" stroke-linecap="round"/>
      <path d="M 0,5 Q 26,5 38,28" fill="none" stroke="#574E84" stroke-width="2.5" stroke-linecap="round"/>
    </g>
    <g transform="translate(1060 330)">
      <line x1="0" y1="0" x2="0" y2="48" stroke="#2A2444" stroke-width="2.5"/>
      <path d="M 0,0 Q -22,-14 -42,4" fill="none" stroke="#574E84" stroke-width="2.5" stroke-linecap="round"/>
      <path d="M 0,0 Q 22,-14 42,4" fill="none" stroke="#574E84" stroke-width="2.5" stroke-linecap="round"/>
      <path d="M 0,5 Q -26,5 -38,28" fill="none" stroke="#574E84" stroke-width="2.5" stroke-linecap="round"/>
      <path d="M 0,5 Q 26,5 38,28" fill="none" stroke="#574E84" stroke-width="2.5" stroke-linecap="round"/>
    </g>
  </g>

  <!-- DUST cyanati -->
  <g>
    <use href="#s06_dustCyan" x="780" y="440">
      <animate attributeName="y" values="440;360;300" dur="7s" repeatCount="indefinite"/>
      <animate attributeName="opacity" values="0;0.65;0.4;0" dur="7s" repeatCount="indefinite"/>
    </use>
    <use href="#s06_dustCyan" x="920" y="420">
      <animate attributeName="y" values="420;340;280" dur="8s" repeatCount="indefinite"/>
      <animate attributeName="opacity" values="0;0.7;0.45;0" dur="8s" repeatCount="indefinite"/>
    </use>
    <use href="#s06_dustCyan" x="1060" y="460">
      <animate attributeName="y" values="460;380;320" dur="7.5s" repeatCount="indefinite"/>
      <animate attributeName="opacity" values="0;0.6;0.4;0" dur="7.5s" repeatCount="indefinite"/>
    </use>
    <use href="#s06_dustCyan" x="640" y="450">
      <animate attributeName="y" values="450;370;310" dur="9s" repeatCount="indefinite"/>
      <animate attributeName="opacity" values="0;0.55;0.35;0" dur="9s" repeatCount="indefinite"/>
    </use>
    <use href="#s06_dustCyan" x="1200" y="440">
      <animate attributeName="y" values="440;360;300" dur="8.5s" repeatCount="indefinite"/>
      <animate attributeName="opacity" values="0;0.6;0.4;0" dur="8.5s" repeatCount="indefinite"/>
    </use>
  </g>

  <!-- DISTANT GULLS -->
  <g>
    <use href="#s06_gull" x="540" y="260" width="22" height="14">
      <animateTransform attributeName="transform" type="translate"
        values="0 0;-30 -4;-58 4;-88 -3"
        keyTimes="0;0.33;0.66;1" dur="14s" repeatCount="indefinite"/>
    </use>
    <use href="#s06_gull" x="1300" y="240" width="20" height="13">
      <animateTransform attributeName="transform" type="translate"
        values="0 0;28 -3;58 5;88 -2"
        keyTimes="0;0.33;0.66;1" dur="16s" repeatCount="indefinite"/>
    </use>
    <use href="#s06_gull" x="1480" y="300" width="18" height="12">
      <animateTransform attributeName="transform" type="translate"
        values="0 0;-22 -3;-46 4;-72 -2"
        keyTimes="0;0.33;0.66;1" dur="15s" repeatCount="indefinite"/>
    </use>
  </g>

  <!-- MARE 3-layer parallax slow -->
  <g>
    <rect x="0" y="560" width="1920" height="80" fill="url(#s06_seaFar)"/>
    <use href="#s06_waveFar" x="-100" y="580" fill="#FFFFFF" opacity="0.4">
      <animate attributeName="x" values="-100;-280;-100" dur="22s" repeatCount="indefinite"/>
    </use>
    <use href="#s06_waveFar" x="-200" y="610" fill="#FFFFFF" opacity="0.3">
      <animate attributeName="x" values="-200;-40;-200" dur="20s" repeatCount="indefinite"/>
    </use>

    <rect x="0" y="640" width="1920" height="120" fill="url(#s06_seaMid)"/>
    <use href="#s06_waveMid" x="-50" y="660" fill="#FFFFFF" opacity="0.5">
      <animate attributeName="x" values="-50;-260;-50" dur="16s" repeatCount="indefinite"/>
    </use>
    <use href="#s06_waveMid" x="-150" y="700" fill="#FFFFFF" opacity="0.38">
      <animate attributeName="x" values="-150;30;-150" dur="13s" repeatCount="indefinite"/>
    </use>

    <rect x="0" y="760" width="1920" height="80" fill="url(#s06_seaClose)"/>
    <use href="#s06_waveMid" x="0" y="780" fill="#A8BAC6" opacity="0.55" transform="scale(1.6 1)">
      <animate attributeName="x" values="0;-180;0" dur="11s" repeatCount="indefinite"/>
    </use>
  </g>

  <!-- SPIAGGIA BIANCA foreground -->
  <g>
    <path d="M 0,820 Q 240,810 480,818 Q 720,826 960,818 Q 1200,810 1440,820 Q 1680,830 1920,820 L 1920,860 L 0,860 Z"
          fill="url(#s06_wetSand)"/>

    <use href="#s06_foamLine" x="0" y="820" stroke="#FFFFFF" stroke-width="3" fill="none" opacity="0.85">
      <animate attributeName="opacity" values="0.85;0.55;0.85;0.5;0.85" keyTimes="0;0.25;0.5;0.75;1" dur="4s" repeatCount="indefinite"/>
    </use>
    <use href="#s06_foamLine" x="-40" y="830" stroke="#FFFFFF" stroke-width="2" fill="none" opacity="0.6">
      <animate attributeName="x" values="-40;20;-40" dur="6s" repeatCount="indefinite"/>
    </use>

    <path d="M 0,840 Q 240,830 480,838 Q 720,846 960,838 Q 1200,830 1440,840 Q 1680,850 1920,840 L 1920,1080 L 0,1080 Z"
          fill="url(#s06_sand)" stroke="#A88B58" stroke-width="1.5"/>
    <path d="M 0,840 Q 240,830 480,838 Q 720,846 960,838 Q 1200,830 1440,840 Q 1680,850 1920,840 L 1920,1080 L 0,1080 Z"
          fill="url(#s06_sand)" filter="url(#s06_sandGrain)" opacity="0.55"/>

    <ellipse cx="960" cy="970" rx="380" ry="22" fill="#8B7050" opacity="0.45"/>

    <g stroke="#A88B58" stroke-width="2" opacity="0.55" fill="none">
      <path d="M 760,1080 Q 770,1010 780,960"/>
      <path d="M 1160,1080 Q 1150,1010 1140,960"/>
    </g>

    <rect x="0" y="840" width="1920" height="240" fill="url(#s06_sandShadow)"/>
  </g>

  <!-- SCIALUPPA con 4 rematori -->
  <g transform="translate(960 960)">
    <animateTransform attributeName="transform" type="translate"
      values="960 960; 960 956; 960 960; 960 958; 960 960"
      keyTimes="0;0.25;0.5;0.75;1" dur="5.5s" repeatCount="indefinite"
      calcMode="spline" keySplines="0.42 0 0.58 1;0.42 0 0.58 1;0.42 0 0.58 1;0.42 0 0.58 1"/>

    <!-- SCAFO -->
    <g>
      <path d="M -380,0 Q -360,40 -300,52 L 300,52 Q 360,40 380,0 L 340,-12 L -340,-12 Z" fill="url(#s06_boat)" stroke="#0A0805" stroke-width="2.5"/>
      <path d="M -380,0 Q -360,40 -300,52 L 300,52 Q 360,40 380,0 L 340,-12 L -340,-12 Z" fill="url(#s06_boat)" filter="url(#s06_woodGrain)" opacity="0.7"/>
      <rect x="-340" y="-18" width="680" height="8" fill="#0A0805"/>
      <g stroke="#1A0F08" stroke-width="1.2" opacity="0.65">
        <line x1="-340" y1="6" x2="340" y2="6"/>
        <line x1="-320" y1="24" x2="320" y2="24"/>
        <line x1="-300" y1="42" x2="300" y2="42"/>
      </g>
      <g fill="#3A2818" stroke="#0A0805" stroke-width="1.5">
        <rect x="-300" y="-22" width="60" height="10"/>
        <rect x="-130" y="-22" width="60" height="10"/>
        <rect x="80" y="-22" width="60" height="10"/>
        <rect x="250" y="-22" width="60" height="10"/>
      </g>
      <path d="M 380,0 L 420,-30 L 410,-10 L 395,0 Z" fill="url(#s06_boat)" stroke="#0A0805" stroke-width="2"/>
      <path d="M -380,0 L -420,-30 L -410,-10 L -395,0 Z" fill="url(#s06_boat)" stroke="#0A0805" stroke-width="2"/>
    </g>

    <!-- REMI -->
    <g>
      <g transform="rotate(-22 -240 -22)">
        <animateTransform attributeName="transform" type="rotate"
          values="-22 -240 -22; -16 -240 -22; -22 -240 -22"
          keyTimes="0;0.5;1" dur="3.6s" repeatCount="indefinite"/>
        <rect x="-380" y="-26" width="170" height="6" fill="#5C4226" stroke="#0A0805" stroke-width="1"/>
        <path d="M -395,-30 L -380,-30 L -380,-16 L -395,-16 Z" fill="#3A2818" stroke="#0A0805" stroke-width="1"/>
        <path d="M -440,-32 L -395,-30 L -395,-16 L -440,-14 Z" fill="#5C4226" stroke="#0A0805" stroke-width="1.2"/>
      </g>
      <g transform="rotate(-22 -40 -22)">
        <animateTransform attributeName="transform" type="rotate"
          values="-22 -40 -22; -16 -40 -22; -22 -40 -22"
          keyTimes="0;0.5;1" dur="3.6s" repeatCount="indefinite" begin="0.3s"/>
        <rect x="-180" y="-26" width="170" height="6" fill="#5C4226" stroke="#0A0805" stroke-width="1"/>
        <path d="M -195,-30 L -180,-30 L -180,-16 L -195,-16 Z" fill="#3A2818" stroke="#0A0805" stroke-width="1"/>
        <path d="M -240,-32 L -195,-30 L -195,-16 L -240,-14 Z" fill="#5C4226" stroke="#0A0805" stroke-width="1.2"/>
      </g>
      <g transform="rotate(22 170 -22)">
        <animateTransform attributeName="transform" type="rotate"
          values="22 170 -22; 16 170 -22; 22 170 -22"
          keyTimes="0;0.5;1" dur="3.6s" repeatCount="indefinite"/>
        <rect x="170" y="-26" width="170" height="6" fill="#5C4226" stroke="#0A0805" stroke-width="1"/>
        <path d="M 340,-30 L 355,-30 L 355,-16 L 340,-16 Z" fill="#3A2818" stroke="#0A0805" stroke-width="1"/>
        <path d="M 355,-32 L 400,-30 L 400,-14 L 355,-16 Z" fill="#5C4226" stroke="#0A0805" stroke-width="1.2"/>
      </g>
      <g transform="rotate(22 330 -22)">
        <animateTransform attributeName="transform" type="rotate"
          values="22 330 -22; 16 330 -22; 22 330 -22"
          keyTimes="0;0.5;1" dur="3.6s" repeatCount="indefinite" begin="0.3s"/>
        <rect x="330" y="-26" width="170" height="6" fill="#5C4226" stroke="#0A0805" stroke-width="1"/>
        <path d="M 500,-30 L 515,-30 L 515,-16 L 500,-16 Z" fill="#3A2818" stroke="#0A0805" stroke-width="1"/>
        <path d="M 515,-32 L 560,-30 L 560,-14 L 515,-16 Z" fill="#5C4226" stroke="#0A0805" stroke-width="1.2"/>
      </g>
    </g>

    <!-- 4 REMATORI back-view -->
    <g transform="translate(-270 -22)">
      <animateTransform attributeName="transform" type="translate"
        values="-270 -22; -270 -24; -270 -22"
        keyTimes="0;0.5;1" dur="3.6s" repeatCount="indefinite"/>
      <path d="M -28,-30 L -34,-110 L 34,-110 L 28,-30 Z" fill="url(#s06_char)" stroke="#020306" stroke-width="1.5"/>
      <path d="M -38,-110 L 38,-110 L 32,-122 L -32,-122 Z" fill="url(#s06_char)"/>
      <rect x="-8" y="-134" width="16" height="12" fill="url(#s06_char)"/>
      <ellipse cx="0" cy="-148" rx="17" ry="19" fill="url(#s06_char)" stroke="#020306" stroke-width="1.2"/>
      <path d="M -18,-158 L 18,-158 L 20,-148 L -20,-148 Z" fill="#3D365E"/>
      <path d="M 14,-152 L 24,-138 L 18,-136 L 10,-148 Z" fill="#3D365E"/>
      <path d="M -28,-110 L -68,-50 L -58,-40 L -22,-100 Z" fill="url(#s06_char)"/>
      <path d="M 28,-110 L 68,-50 L 58,-40 L 22,-100 Z" fill="url(#s06_char)"/>
      <path d="M 28,-110 L 34,-30 L 40,-30 L 32,-110 Z" fill="url(#s06_charRim)"/>
    </g>

    <g transform="translate(-100 -22)">
      <animateTransform attributeName="transform" type="translate"
        values="-100 -22; -100 -24; -100 -22"
        keyTimes="0;0.5;1" dur="3.6s" repeatCount="indefinite" begin="0.3s"/>
      <path d="M -28,-30 L -34,-110 L 34,-110 L 28,-30 Z" fill="url(#s06_char)" stroke="#020306" stroke-width="1.5"/>
      <path d="M -38,-110 L 38,-110 L 32,-122 L -32,-122 Z" fill="url(#s06_char)"/>
      <rect x="-8" y="-134" width="16" height="12" fill="url(#s06_char)"/>
      <ellipse cx="0" cy="-148" rx="17" ry="19" fill="url(#s06_char)" stroke="#020306" stroke-width="1.2"/>
      <ellipse cx="0" cy="-162" rx="22" ry="8" fill="#020306"/>
      <path d="M -16,-170 L 16,-170 L 18,-160 L -18,-160 Z" fill="url(#s06_char)"/>
      <path d="M -28,-110 L -68,-50 L -58,-40 L -22,-100 Z" fill="url(#s06_char)"/>
      <path d="M 28,-110 L 68,-50 L 58,-40 L 22,-100 Z" fill="url(#s06_char)"/>
      <path d="M 28,-110 L 34,-30 L 40,-30 L 32,-110 Z" fill="url(#s06_charRim)"/>
    </g>

    <g transform="translate(110 -22)">
      <animateTransform attributeName="transform" type="translate"
        values="110 -22; 110 -24; 110 -22"
        keyTimes="0;0.5;1" dur="3.6s" repeatCount="indefinite"/>
      <path d="M -28,-30 L -34,-110 L 34,-110 L 28,-30 Z" fill="url(#s06_char)" stroke="#020306" stroke-width="1.5"/>
      <path d="M -38,-110 L 38,-110 L 32,-122 L -32,-122 Z" fill="url(#s06_char)"/>
      <rect x="-8" y="-134" width="16" height="12" fill="url(#s06_char)"/>
      <ellipse cx="0" cy="-148" rx="17" ry="19" fill="url(#s06_char)" stroke="#020306" stroke-width="1.2"/>
      <path d="M -18,-158 L 18,-158 L 20,-148 L -20,-148 Z" fill="#574E84"/>
      <path d="M -22,-148 L -32,-134 L -26,-132 L -18,-144 Z" fill="#574E84"/>
      <path d="M -28,-110 L -68,-50 L -58,-40 L -22,-100 Z" fill="url(#s06_char)"/>
      <path d="M 28,-110 L 68,-50 L 58,-40 L 22,-100 Z" fill="url(#s06_char)"/>
      <path d="M 28,-110 L 34,-30 L 40,-30 L 32,-110 Z" fill="url(#s06_charRim)"/>
    </g>

    <g transform="translate(280 -22)">
      <animateTransform attributeName="transform" type="translate"
        values="280 -22; 280 -24; 280 -22"
        keyTimes="0;0.5;1" dur="3.6s" repeatCount="indefinite" begin="0.3s"/>
      <path d="M -28,-30 L -34,-110 L 34,-110 L 28,-30 Z" fill="url(#s06_char)" stroke="#020306" stroke-width="1.5"/>
      <path d="M -38,-110 L 38,-110 L 32,-122 L -32,-122 Z" fill="url(#s06_char)"/>
      <rect x="-8" y="-134" width="16" height="12" fill="url(#s06_char)"/>
      <ellipse cx="0" cy="-148" rx="17" ry="19" fill="url(#s06_char)" stroke="#020306" stroke-width="1.2"/>
      <path d="M -22,-160 L 22,-160 L 24,-156 L -24,-156 Z" fill="#020306"/>
      <path d="M -24,-160 L 24,-160 L 14,-180 L -14,-180 Z" fill="url(#s06_char)" stroke="#020306" stroke-width="1.2"/>
      <path d="M -28,-110 L -68,-50 L -58,-40 L -22,-100 Z" fill="url(#s06_char)"/>
      <path d="M 28,-110 L 68,-50 L 58,-40 L 22,-100 Z" fill="url(#s06_char)"/>
      <path d="M 28,-110 L 34,-30 L 40,-30 L 32,-110 Z" fill="url(#s06_charRim)"/>
    </g>
  </g>

  <!-- Spruzzo sotto i remi -->
  <g fill="#FFFFFF" opacity="0.6" filter="url(#s06_dustGlow)">
    <ellipse cx="555" cy="950" rx="22" ry="3">
      <animate attributeName="opacity" values="0.6;0.2;0.6" dur="3.6s" repeatCount="indefinite"/>
    </ellipse>
    <ellipse cx="755" cy="950" rx="20" ry="3">
      <animate attributeName="opacity" values="0.6;0.2;0.6" dur="3.6s" repeatCount="indefinite" begin="0.3s"/>
    </ellipse>
    <ellipse cx="1170" cy="950" rx="22" ry="3">
      <animate attributeName="opacity" values="0.6;0.2;0.6" dur="3.6s" repeatCount="indefinite"/>
    </ellipse>
    <ellipse cx="1370" cy="950" rx="20" ry="3">
      <animate attributeName="opacity" values="0.6;0.2;0.6" dur="3.6s" repeatCount="indefinite" begin="0.3s"/>
    </ellipse>
  </g>

  <!-- Painterly overlay -->
  <rect width="1920" height="1080" fill="#FFFFFF" opacity="0.04" filter="url(#s06_painterly)" pointer-events="none"/>

  <!-- VIGNETTE -->
  <rect width="1920" height="1080" fill="url(#s06_vig)" pointer-events="none"/>
</svg>
