<?xml version="1.0" encoding="UTF-8"?>
<svg xmlns="http://www.w3.org/2000/svg" viewBox="0 0 1920 1080" preserveAspectRatio="xMidYMid slice" role="img" aria-label="Scene 11A — Setting sail at sunset (Act III climax) — Cartoon Saloon">
  <title>Scene 11A — Nave salpa al tramonto, vele gonfie</title>
  <desc>Cartoon Saloon Act III climax: tramonto pittorico (cielo orange→viola→nero), mare 3-layer parallax con riflessi specchiati arancioni, god rays dorati dal sole, nostra nave POV poppa con capitano+ciurma in silhouette back-view che guardano l'orizzonte, 2 navi distanti FERME in silhouette (storyboard cue), bandiera arancione che sventola. Arancione tramonto permesso (atto III culmine).</desc>

  <defs>
    <linearGradient id="s11_sky" x1="0%" y1="0%" x2="0%" y2="100%">
      <stop offset="0%" stop-color="#3A1F4A"/>
      <stop offset="22%" stop-color="#7A3A4E"/>
      <stop offset="48%" stop-color="#E08A38"/>
      <stop offset="72%" stop-color="#F8B868"/>
      <stop offset="100%" stop-color="#FBE0B8"/>
    </linearGradient>
    <linearGradient id="s11_seaFar" x1="0%" y1="0%" x2="0%" y2="100%">
      <stop offset="0%" stop-color="#A88060"/><stop offset="100%" stop-color="#704A38"/>
    </linearGradient>
    <linearGradient id="s11_seaMid" x1="0%" y1="0%" x2="0%" y2="100%">
      <stop offset="0%" stop-color="#704A38"/><stop offset="100%" stop-color="#3A2A2C"/>
    </linearGradient>
    <linearGradient id="s11_seaClose" x1="0%" y1="0%" x2="0%" y2="100%">
      <stop offset="0%" stop-color="#3A2A2C"/><stop offset="100%" stop-color="#15100E"/>
    </linearGradient>
    <linearGradient id="s11_hull" x1="0%" y1="0%" x2="0%" y2="100%">
      <stop offset="0%" stop-color="#2A1810"/>
      <stop offset="100%" stop-color="#0A0805"/>
    </linearGradient>
    <linearGradient id="s11_sail" x1="0%" y1="0%" x2="0%" y2="100%">
      <stop offset="0%" stop-color="#FAE0B8"/>
      <stop offset="55%" stop-color="#E0A468"/>
      <stop offset="100%" stop-color="#8B5A28"/>
    </linearGradient>
    <linearGradient id="s11_sailShadow" x1="0%" y1="0%" x2="100%" y2="0%">
      <stop offset="0%" stop-color="#5A3818" stop-opacity="0.35"/>
      <stop offset="50%" stop-color="#5A3818" stop-opacity="0"/>
      <stop offset="100%" stop-color="#5A3818" stop-opacity="0.32"/>
    </linearGradient>
    <linearGradient id="s11_hullRim" x1="100%" y1="0%" x2="0%" y2="0%">
      <stop offset="0%" stop-color="#FFB870" stop-opacity="0.65"/>
      <stop offset="100%" stop-color="#FFB870" stop-opacity="0"/>
    </linearGradient>
    <radialGradient id="s11_sun" cx="50%" cy="50%" r="60%">
      <stop offset="0%" stop-color="#FFE6B8"/>
      <stop offset="35%" stop-color="#FFB868"/>
      <stop offset="70%" stop-color="#F8884A" stop-opacity="0.75"/>
      <stop offset="100%" stop-color="#F8884A" stop-opacity="0"/>
    </radialGradient>
    <linearGradient id="s11_rays" x1="50%" y1="0%" x2="50%" y2="100%">
      <stop offset="0%" stop-color="#FFD898" stop-opacity="0.7"/>
      <stop offset="55%" stop-color="#FFD898" stop-opacity="0.22"/>
      <stop offset="100%" stop-color="#FFD898" stop-opacity="0"/>
    </linearGradient>
    <linearGradient id="s11_glitter" x1="0%" y1="0%" x2="0%" y2="100%">
      <stop offset="0%" stop-color="#FFE6B8" stop-opacity="0.75"/>
      <stop offset="100%" stop-color="#FF8A3A" stop-opacity="0"/>
    </linearGradient>
    <linearGradient id="s11_char" x1="0%" y1="0%" x2="0%" y2="100%">
      <stop offset="0%" stop-color="#0A0805"/>
      <stop offset="100%" stop-color="#020306"/>
    </linearGradient>
    <linearGradient id="s11_charRim" x1="100%" y1="0%" x2="0%" y2="0%">
      <stop offset="0%" stop-color="#FFB870" stop-opacity="0.55"/>
      <stop offset="50%" stop-color="#FFB870" stop-opacity="0"/>
    </linearGradient>
    <filter id="s11_woodGrain" x="0%" y="0%" width="100%" height="100%">
      <feTurbulence type="fractalNoise" baseFrequency="0.04 0.4" numOctaves="3" seed="23"/>
      <feColorMatrix values="0 0 0 0 0.15  0 0 0 0 0.10  0 0 0 0 0.06  0 0 0 0.55 0"/>
      <feComposite in2="SourceGraphic" operator="in"/>
    </filter>
    <filter id="s11_painterly" x="-5%" y="-5%" width="110%" height="110%">
      <feTurbulence type="fractalNoise" baseFrequency="0.008" numOctaves="3" seed="31"/>
      <feDisplacementMap in="SourceGraphic" scale="6"/>
    </filter>
    <filter id="s11_bloom" x="-50%" y="-50%" width="200%" height="200%">
      <feGaussianBlur stdDeviation="14"/>
      <feMerge><feMergeNode/><feMergeNode in="SourceGraphic"/></feMerge>
    </filter>
    <filter id="s11_softGlow" x="-50%" y="-50%" width="200%" height="200%">
      <feGaussianBlur stdDeviation="3"/>
    </filter>
    <filter id="s11_rayBlur" x="-50%" y="-50%" width="200%" height="200%">
      <feGaussianBlur stdDeviation="22"/>
    </filter>
    <path id="s11_waveBack" d="M 0,0 Q 120,-8 240,0 T 480,0 T 720,0 T 960,0 T 1200,0 T 1440,0 T 1680,0 T 1920,0 L 1920,40 L 0,40 Z"/>
    <path id="s11_waveMid"  d="M 0,0 Q 90,-12 180,0 T 360,0 T 540,0 T 720,0 T 900,0 T 1080,0 T 1260,0 T 1440,0 T 1620,0 T 1800,0 L 1920,0 L 1920,50 L 0,50 Z"/>
    <circle id="s11_dust" r="2" fill="#FFD898" filter="url(#s11_softGlow)"/>
  </defs>

  <!-- Slow dolly forward -->
  <g transform="translate(960 540)">
    <g>
      <animateTransform attributeName="transform" type="scale"
        values="1.0; 0.98; 0.96; 0.94" keyTimes="0;0.4;0.7;1" dur="8s" fill="freeze"/>
      <g transform="translate(-960 -540)">

        <!-- SKY tramonto pittorico -->
        <rect x="0" y="0" width="1920" height="700" fill="url(#s11_sky)"/>

        <!-- Painterly clouds dorate -->
        <g opacity="0.6" filter="url(#s11_painterly)">
          <ellipse cx="280" cy="160" rx="380" ry="22" fill="#FBE0B8"/>
          <ellipse cx="720" cy="120" rx="320" ry="20" fill="#F8C880"/>
          <ellipse cx="1240" cy="180" rx="420" ry="24" fill="#FBE0B8"/>
          <ellipse cx="1680" cy="140" rx="280" ry="18" fill="#F8884A" opacity="0.7"/>
          <ellipse cx="900" cy="280" rx="640" ry="20" fill="#F0A858" opacity="0.55"/>
        </g>

        <!-- GOD RAYS dorati dal sole -->
        <g filter="url(#s11_rayBlur)" opacity="0.78">
          <polygon points="940,700 880,700 700,-50 820,-50"  fill="url(#s11_rays)"/>
          <polygon points="980,700 1040,700 1240,-50 1100,-50" fill="url(#s11_rays)" opacity="0.85"/>
          <polygon points="700,700 600,700 320,-50 540,-50"  fill="url(#s11_rays)" opacity="0.55"/>
          <polygon points="1200,700 1320,700 1620,-50 1380,-50" fill="url(#s11_rays)" opacity="0.6"/>
          <polygon points="540,700 460,700 220,-50 380,-50" fill="url(#s11_rays)" opacity="0.32"/>
        </g>

        <!-- Setting sun -->
        <circle cx="960" cy="540" r="180" fill="url(#s11_sun)" filter="url(#s11_bloom)"/>
        <circle cx="960" cy="540" r="70" fill="#FFE6B8" filter="url(#s11_bloom)"/>
        <circle cx="960" cy="540" r="40" fill="#FFFBEF"/>

        <!-- ============ DISTANT STILL SHIPS (storyboard cue: altre navi ferme) ============ -->
        <g transform="translate(280 656) scale(0.20)" opacity="0.55">
          <path d="M -160,0 Q -140,30 -80,45 L 80,45 Q 140,30 160,0 L 130,-14 L -130,-14 Z" fill="#1A1410"/>
          <rect x="-2" y="-220" width="4" height="220" fill="#1F1810"/>
          <rect x="-72" y="-170" width="4" height="170" fill="#1F1810"/>
          <rect x="68" y="-160" width="4" height="160" fill="#1F1810"/>
          <path d="M -2,-220 Q -60,-170 -60,-80 L -60,-20 L 0,-20 Z" fill="#3A2A18" opacity="0.85"/>
          <path d="M 2,-220 Q 60,-170 60,-80 L 60,-20 L 0,-20 Z" fill="#3A2A18" opacity="0.8"/>
          <path d="M -72,-170 Q -130,-130 -130,-60 L -130,-20 L -72,-20 Z" fill="#3A2A18" opacity="0.75"/>
          <!-- Tiny reflection -->
          <path d="M -160,45 L 160,45 L 130,70 L -130,70 Z" fill="#0A0805" opacity="0.5"/>
        </g>
        <g transform="translate(1640 664) scale(0.17)" opacity="0.5">
          <path d="M -160,0 Q -140,30 -80,45 L 80,45 Q 140,30 160,0 L 130,-14 L -130,-14 Z" fill="#1A1410"/>
          <rect x="-2" y="-220" width="4" height="220" fill="#1F1810"/>
          <rect x="-72" y="-170" width="4" height="170" fill="#1F1810"/>
          <path d="M -2,-220 Q -60,-170 -60,-80 L -60,-20 L 0,-20 Z" fill="#3A2A18" opacity="0.8"/>
          <path d="M 2,-220 Q 60,-170 60,-80 L 60,-20 L 0,-20 Z" fill="#3A2A18" opacity="0.75"/>
          <path d="M -72,-170 Q -130,-130 -130,-60 L -130,-20 L -72,-20 Z" fill="#3A2A18" opacity="0.7"/>
          <path d="M -160,45 L 160,45 L 130,70 L -130,70 Z" fill="#0A0805" opacity="0.5"/>
        </g>

        <!-- Foreground beach silhouette -->
        <rect x="0" y="1000" width="1920" height="80" fill="#0A0805"/>
        <path d="M 0,1000 Q 480,990 960,1005 Q 1440,1020 1920,1000 L 1920,1080 L 0,1080 Z" fill="#0A0805"/>

        <!-- ============ MARE 3-LAYER PARALLAX (con riflessi arancioni) ============ -->
        <rect x="0" y="700" width="1920" height="80" fill="url(#s11_seaFar)"/>
        <use href="#s11_waveBack" x="-100" y="720" fill="#FFE0B8" opacity="0.55">
          <animate attributeName="x" values="-100;-340;-100" dur="22s" repeatCount="indefinite"/>
        </use>
        <use href="#s11_waveBack" x="-200" y="750" fill="#FFD898" opacity="0.4">
          <animate attributeName="x" values="-200;-40;-200" dur="18s" repeatCount="indefinite"/>
        </use>

        <rect x="0" y="780" width="1920" height="120" fill="url(#s11_seaMid)"/>
        <use href="#s11_waveMid" x="-50" y="800" fill="#FAE0B8" opacity="0.55">
          <animate attributeName="x" values="-50;-280;-50" dur="14s" repeatCount="indefinite"/>
        </use>
        <use href="#s11_waveMid" x="-150" y="840" fill="#F8B868" opacity="0.42">
          <animate attributeName="x" values="-150;30;-150" dur="11s" repeatCount="indefinite"/>
        </use>

        <rect x="0" y="900" width="1920" height="120" fill="url(#s11_seaClose)"/>
        <use href="#s11_waveMid" x="0" y="920" fill="#FAE6C0" opacity="0.6" transform="scale(1.6 1)">
          <animate attributeName="x" values="0;-180;0" dur="9s" repeatCount="indefinite"/>
        </use>

        <!-- Golden glitter band riflesso sole (specchiato) -->
        <ellipse cx="960" cy="720" rx="240" ry="32" fill="url(#s11_glitter)" filter="url(#s11_bloom)" opacity="0.85"/>
        <ellipse cx="960" cy="780" rx="180" ry="22" fill="url(#s11_glitter)" filter="url(#s11_bloom)" opacity="0.7"/>
        <ellipse cx="960" cy="860" rx="140" ry="18" fill="url(#s11_glitter)" filter="url(#s11_bloom)" opacity="0.55"/>

        <!-- Small glitter sparkles -->
        <g fill="#FFE6B8" opacity="0.85" filter="url(#s11_softGlow)">
          <circle cx="840" cy="740" r="2.5">
            <animate attributeName="opacity" values="0.3;0.95;0.3" dur="1.4s" repeatCount="indefinite"/>
          </circle>
          <circle cx="1080" cy="760" r="2">
            <animate attributeName="opacity" values="0.4;0.85;0.4" dur="1.6s" repeatCount="indefinite"/>
          </circle>
          <circle cx="900" cy="800" r="2.2">
            <animate attributeName="opacity" values="0.35;0.9;0.35" dur="1.8s" repeatCount="indefinite"/>
          </circle>
          <circle cx="1020" cy="820" r="1.8">
            <animate attributeName="opacity" values="0.3;0.8;0.3" dur="1.3s" repeatCount="indefinite"/>
          </circle>
        </g>

        <!-- ============ OUR SHIP — POV poppa, con CIURMA back-view ============ -->
        <g>
          <animateTransform attributeName="transform" type="translate"
            values="0 0; 0 -5; 0 -10; 0 -12"
            keyTimes="0;0.4;0.7;1" dur="8s" fill="freeze"/>

          <g transform="translate(960 740) scale(0.95)">

            <!-- Stern hull (wider, back of ship) -->
            <path d="M -180,0 Q -160,40 -100,55 L 100,55 Q 160,40 180,0 L 150,-18 L -150,-18 Z"
                  fill="url(#s11_hull)" stroke="#0A0805" stroke-width="2.5"/>
            <path d="M -180,0 Q -160,40 -100,55 L 100,55 Q 160,40 180,0 L 150,-18 L -150,-18 Z"
                  fill="url(#s11_hull)" filter="url(#s11_woodGrain)" opacity="0.6"/>
            <line x1="-150" y1="-8" x2="150" y2="-8" stroke="#0A0805" stroke-width="1" opacity="0.55"/>
            <line x1="-145" y1="10" x2="145" y2="10" stroke="#0A0805" stroke-width="1" opacity="0.55"/>
            <line x1="-140" y1="30" x2="140" y2="30" stroke="#0A0805" stroke-width="1" opacity="0.5"/>
            <rect x="-150" y="-22" width="300" height="6" fill="#0A0805"/>

            <!-- Rim light (right side, warm sunset) -->
            <path d="M 150,-18 Q 178,12 150,40 L 100,55 L 130,-10 Z" fill="url(#s11_hullRim)"/>

            <!-- Stern windows lit warm -->
            <rect x="-50" y="-10" width="20" height="22" fill="#FFCB8A" opacity="0.9" filter="url(#s11_softGlow)"/>
            <rect x="-20" y="-10" width="20" height="22" fill="#FFCB8A" opacity="0.9" filter="url(#s11_softGlow)"/>
            <rect x="10" y="-10" width="20" height="22" fill="#FFCB8A" opacity="0.9" filter="url(#s11_softGlow)"/>
            <rect x="40" y="-10" width="20" height="22" fill="#FFCB8A" opacity="0.9" filter="url(#s11_softGlow)"/>

            <!-- Masts -->
            <rect x="-3" y="-360" width="6" height="360" fill="#1F1810"/>
            <rect x="-100" y="-300" width="5" height="300" fill="#1F1810"/>
            <rect x="95" y="-280" width="5" height="280" fill="#1F1810"/>
            <!-- Yards -->
            <rect x="-100" y="-300" width="200" height="3.5" fill="#1F1810"/>
            <rect x="-130" y="-218" width="260" height="3.5" fill="#1F1810"/>

            <!-- Sails BILLOWED FULL with pieghe -->
            <g>
              <animateTransform attributeName="transform" type="translate"
                values="0 0;4 -2;0 0;-3 -2;0 0"
                keyTimes="0;0.25;0.5;0.75;1" dur="9s" repeatCount="indefinite"/>
              <path d="M -3,-360 Q -120,-300 -130,-150 L -130,-20 L 130,-20 L 130,-150 Q 120,-300 3,-360 Z"
                    fill="url(#s11_sail)" stroke="#8B5A28" stroke-width="1.5"/>
              <path d="M -85,-280 Q -95,-160 -90,-20" fill="none" stroke="#B07440" stroke-width="1.5" opacity="0.55"/>
              <path d="M -40,-310 Q -50,-170 -42,-20" fill="none" stroke="#B07440" stroke-width="1.5" opacity="0.5"/>
              <path d="M 40,-310 Q 50,-170 42,-20" fill="none" stroke="#B07440" stroke-width="1.5" opacity="0.5"/>
              <path d="M 85,-280 Q 95,-160 90,-20" fill="none" stroke="#B07440" stroke-width="1.5" opacity="0.55"/>
              <path d="M -3,-360 Q -120,-300 -130,-150 L -130,-20 L 130,-20 L 130,-150 Q 120,-300 3,-360 Z"
                    fill="url(#s11_sailShadow)"/>
            </g>

            <!-- Fore sail -->
            <g>
              <animateTransform attributeName="transform" type="translate"
                values="0 0;-3 -2;0 0;2 -2;0 0"
                keyTimes="0;0.25;0.5;0.75;1" dur="8s" repeatCount="indefinite"/>
              <path d="M -100,-300 Q -180,-240 -190,-110 L -190,-20 L -100,-20 Z" fill="url(#s11_sail)" stroke="#8B5A28" stroke-width="1.4"/>
              <path d="M -150,-220 Q -160,-100 -160,-20" fill="none" stroke="#B07440" stroke-width="1.2" opacity="0.5"/>
            </g>
            <!-- Mizzen -->
            <g>
              <animateTransform attributeName="transform" type="translate"
                values="0 0;2 -2;0 0;-2 -1;0 0"
                keyTimes="0;0.25;0.5;0.75;1" dur="8.5s" repeatCount="indefinite"/>
              <path d="M 95,-280 Q 175,-220 185,-100 L 185,-20 L 95,-20 Z" fill="url(#s11_sail)" stroke="#8B5A28" stroke-width="1.4" opacity="0.96"/>
              <path d="M 145,-200 Q 155,-90 155,-20" fill="none" stroke="#B07440" stroke-width="1.2" opacity="0.5"/>
            </g>

            <!-- Rigging -->
            <g stroke="#1F1810" stroke-width="0.8" opacity="0.55">
              <line x1="0" y1="-360" x2="-100" y2="-300"/>
              <line x1="0" y1="-360" x2="95" y2="-280"/>
              <line x1="-130" y1="-150" x2="-190" y2="-110"/>
              <line x1="130" y1="-150" x2="185" y2="-100"/>
              <line x1="0" y1="-360" x2="-148" y2="-22"/>
              <line x1="0" y1="-360" x2="148" y2="-22"/>
            </g>

            <!-- FLAG arancione (Act III culmine) -->
            <path d="M 3,-360 L 60,-340 L 50,-320 L 3,-330 Z" fill="#FF6B1A" filter="url(#s11_bloom)">
              <animateTransform attributeName="transform" type="skewX"
                values="0;6;0;-4;0" keyTimes="0;0.25;0.5;0.75;1" dur="3s" repeatCount="indefinite"/>
            </path>

            <!-- ============ CAPITANO + CIURMA back-view on poppa ============ -->
            <!-- Capitano centro (al timone) -->
            <g transform="translate(0 -36)">
              <animateTransform attributeName="transform" type="translate"
                values="0 -36; 0 -38; 0 -36; 0 -37; 0 -36"
                keyTimes="0;0.25;0.5;0.75;1" dur="5s" repeatCount="indefinite"/>
              <!-- Coat (long flowing) -->
              <path d="M -22,-12 L -36,46 L 36,46 L 22,-12 Z" fill="url(#s11_char)"/>
              <!-- Belt -->
              <rect x="-22" y="14" width="44" height="5" fill="#020306"/>
              <rect x="-3" y="14" width="6" height="5" fill="#3A2818"/>
              <!-- Shoulders -->
              <path d="M -22,-12 L -28,-2 L 28,-2 L 22,-12 L 18,-20 L -18,-20 Z" fill="url(#s11_char)"/>
              <!-- Neck + head -->
              <rect x="-5" y="-28" width="10" height="8" fill="url(#s11_char)"/>
              <ellipse cx="0" cy="-38" rx="10" ry="11" fill="url(#s11_char)"/>
              <!-- Tricorne -->
              <path d="M -16,-46 L 16,-46 L 18,-42 L -18,-42 Z" fill="#020306"/>
              <path d="M -18,-46 L 18,-46 L 10,-58 L -10,-58 Z" fill="#020306"/>
              <!-- Rim light from sunset on left back-edge -->
              <path d="M -22,-12 L -36,46 L -40,46 L -25,-10 Z" fill="url(#s11_charRim)" opacity="0.7"/>
            </g>

            <!-- Crew member 1 (left of captain) -->
            <g transform="translate(-44 -30)">
              <animateTransform attributeName="transform" type="translate"
                values="-44 -30; -44 -32; -44 -30; -44 -31; -44 -30"
                keyTimes="0;0.3;0.5;0.7;1" dur="6s" repeatCount="indefinite"/>
              <path d="M -16,-10 L -22,40 L 22,40 L 16,-10 Z" fill="url(#s11_char)"/>
              <path d="M -16,-10 L -20,0 L 20,0 L 16,-10 L 14,-16 L -14,-16 Z" fill="url(#s11_char)"/>
              <rect x="-4" y="-22" width="8" height="6" fill="url(#s11_char)"/>
              <ellipse cx="0" cy="-30" rx="8" ry="9" fill="url(#s11_char)"/>
              <!-- Bandana -->
              <path d="M -10,-36 L 10,-36 L 12,-30 L -12,-30 Z" fill="#020306"/>
            </g>

            <!-- Crew member 2 (right of captain, shorter) -->
            <g transform="translate(42 -28)">
              <animateTransform attributeName="transform" type="translate"
                values="42 -28; 42 -30; 42 -28; 42 -29; 42 -28"
                keyTimes="0;0.3;0.5;0.7;1" dur="5.5s" repeatCount="indefinite"/>
              <path d="M -14,-8 L -18,38 L 18,38 L 14,-8 Z" fill="url(#s11_char)"/>
              <path d="M -14,-8 L -18,2 L 18,2 L 14,-8 L 12,-14 L -12,-14 Z" fill="url(#s11_char)"/>
              <rect x="-4" y="-20" width="8" height="6" fill="url(#s11_char)"/>
              <ellipse cx="0" cy="-28" rx="8" ry="9" fill="url(#s11_char)"/>
              <!-- Skullcap -->
              <path d="M -8,-34 Q 0,-40 8,-34 L 8,-28 L -8,-28 Z" fill="#020306"/>
            </g>

            <!-- Crew member 3 (left-far, smaller) -->
            <g transform="translate(-78 -22)">
              <animateTransform attributeName="transform" type="translate"
                values="-78 -22; -78 -24; -78 -22; -78 -23; -78 -22"
                keyTimes="0;0.3;0.5;0.7;1" dur="6.5s" repeatCount="indefinite"/>
              <path d="M -12,-6 L -16,36 L 16,36 L 12,-6 Z" fill="url(#s11_char)"/>
              <path d="M -12,-6 L -16,4 L 16,4 L 12,-6 L 10,-12 L -10,-12 Z" fill="url(#s11_char)"/>
              <rect x="-4" y="-18" width="8" height="6" fill="url(#s11_char)"/>
              <ellipse cx="0" cy="-25" rx="7" ry="8" fill="url(#s11_char)"/>
            </g>

            <!-- Wake V-shape -->
            <path d="M -200,55 L -380,180 L -180,90 Z" fill="#FAE6C0" opacity="0.55"/>
            <path d="M 200,55 L 380,180 L 180,90 Z" fill="#FAE6C0" opacity="0.55"/>
            <path d="M -160,80 Q 0,90 160,80 Q 0,110 -160,80 Z" fill="#FAF4E9" opacity="0.7"/>
          </g>
        </g>

        <!-- Dust particles nei rays (warm) -->
        <g>
          <use href="#s11_dust" x="820" y="200">
            <animate attributeName="y" values="200;600" dur="9s" repeatCount="indefinite"/>
            <animate attributeName="opacity" values="0;0.75;0.5;0" dur="9s" repeatCount="indefinite"/>
          </use>
          <use href="#s11_dust" x="1080" y="160">
            <animate attributeName="y" values="160;620" dur="11s" repeatCount="indefinite"/>
            <animate attributeName="opacity" values="0;0.7;0.5;0" dur="11s" repeatCount="indefinite"/>
          </use>
          <use href="#s11_dust" x="700" y="280">
            <animate attributeName="y" values="280;680" dur="10s" repeatCount="indefinite"/>
            <animate attributeName="opacity" values="0;0.65;0.4;0" dur="10s" repeatCount="indefinite"/>
          </use>
          <use href="#s11_dust" x="1220" y="240">
            <animate attributeName="y" values="240;640" dur="12s" repeatCount="indefinite"/>
            <animate attributeName="opacity" values="0;0.6;0.4;0" dur="12s" repeatCount="indefinite"/>
          </use>
          <use href="#s11_dust" x="1380" y="320">
            <animate attributeName="y" values="320;700" dur="10s" repeatCount="indefinite"/>
            <animate attributeName="opacity" values="0;0.6;0.4;0" dur="10s" repeatCount="indefinite"/>
          </use>
        </g>
      </g>
    </g>
  </g>

  <!-- Painterly overlay -->
  <rect width="1920" height="1080" fill="#FFFFFF" opacity="0.04" filter="url(#s11_painterly)" pointer-events="none"/>

  <!-- Vignette -->
  <radialGradient id="s11_vig" cx="50%" cy="55%" r="80%">
    <stop offset="58%" stop-color="#000" stop-opacity="0"/>
    <stop offset="100%" stop-color="#000" stop-opacity="0.5"/>
  </radialGradient>
  <rect width="1920" height="1080" fill="url(#s11_vig)" pointer-events="none"/>
</svg>
