<?xml version="1.0" encoding="UTF-8"?>
<svg xmlns="http://www.w3.org/2000/svg" viewBox="0 0 1080 1080" role="img" aria-label="Slide 13. Anno Zero: large central pulsing orange compass with eight Bezier windrose rays and concentric mandala halo">
  <title>Slide 13. Anno Zero (bridge dalla scena 12)</title>
  <desc>Bussola arancione centrale, grande e pulsante, con otto raggi a rosa dei venti in curve Bezier che si irradiano. Sopra, halo concentrici mandala stile Cartoon Saloon in lenta rotazione. Bridge perfetto dalla transition di scena 12.</desc>

  <defs>
    <filter id="painterly13" x="-5%" y="-5%" width="110%" height="110%">
      <feTurbulence type="fractalNoise" baseFrequency="0.008" numOctaves="2" seed="13"/>
      <feDisplacementMap in="SourceGraphic" scale="6"/>
    </filter>
    <filter id="contactBlur13" x="-20%" y="-20%" width="140%" height="140%">
      <feGaussianBlur stdDeviation="3"/>
    </filter>
    <filter id="hazeAnno" x="-10%" y="-10%" width="120%" height="120%">
      <feGaussianBlur stdDeviation="1.8"/>
    </filter>
    <filter id="softGlow13" x="-40%" y="-40%" width="180%" height="180%">
      <feGaussianBlur stdDeviation="10"/>
    </filter>

    <radialGradient id="caseAnno" cx="32%" cy="22%" r="85%">
      <stop offset="0%" stop-color="#FFC890"/>
      <stop offset="48%" stop-color="#FF8A3D"/>
      <stop offset="100%" stop-color="#6E2308"/>
    </radialGradient>
    <radialGradient id="faceAnno" cx="32%" cy="28%" r="85%">
      <stop offset="0%" stop-color="#FAF5EC"/>
      <stop offset="100%" stop-color="#D9CCAE"/>
    </radialGradient>
    <linearGradient id="needleHotAnno" x1="50%" y1="0%" x2="50%" y2="100%">
      <stop offset="0%" stop-color="#FFC890"/>
      <stop offset="100%" stop-color="#005C5A"/>
    </linearGradient>
    <linearGradient id="needleDarkAnno" x1="50%" y1="0%" x2="50%" y2="100%">
      <stop offset="0%" stop-color="#3A2C1A"/>
      <stop offset="100%" stop-color="#0A0706"/>
    </linearGradient>

    <linearGradient id="rayAnno" x1="0%" y1="50%" x2="100%" y2="50%">
      <stop offset="0%" stop-color="#00AAA6" stop-opacity="0.95"/>
      <stop offset="60%" stop-color="#FF8A3D" stop-opacity="0.5"/>
      <stop offset="100%" stop-color="#00AAA6" stop-opacity="0"/>
    </linearGradient>

    <radialGradient id="haloAnno" cx="50%" cy="50%" r="50%">
      <stop offset="0%" stop-color="#00AAA6" stop-opacity="0.32"/>
      <stop offset="55%" stop-color="#00AAA6" stop-opacity="0.10"/>
      <stop offset="100%" stop-color="#00AAA6" stop-opacity="0"/>
    </radialGradient>

    <radialGradient id="vignette13" cx="50%" cy="50%" r="70%">
      <stop offset="58%" stop-color="#000" stop-opacity="0"/>
      <stop offset="100%" stop-color="#000" stop-opacity="0.34"/>
    </radialGradient>
  </defs>

  <rect width="1080" height="1080" fill="#FFFFFF"/>
  <rect width="1080" height="1080" fill="#D9B98A" opacity="0.045" filter="url(#painterly13)"/>

  <!-- Mandala overlay (Cartoon Saloon) -->
  <g transform="translate(540 540)" opacity="0.42" filter="url(#hazeAnno)">
    <circle r="498" fill="none" stroke="#1A1614" stroke-width="1" stroke-dasharray="1,9"/>
    <circle r="446" fill="none" stroke="#1A1614" stroke-width="1.4" stroke-dasharray="3,8"/>
    <circle r="402" fill="none" stroke="#1A1614" stroke-width="1" stroke-dasharray="1,5"/>
    <circle r="354" fill="none" stroke="#1A1614" stroke-width="1.6" stroke-dasharray="5,11"/>
    <circle r="308" fill="none" stroke="#1A1614" stroke-width="1" stroke-dasharray="1,4"/>
    <g stroke="#1A1614" stroke-width="1.4" stroke-linecap="round">
      <line x1="0" y1="-498" x2="0" y2="-480"/>
      <line x1="190" y1="-460" x2="183" y2="-444"/>
      <line x1="352" y1="-352" x2="340" y2="-340"/>
      <line x1="460" y1="-190" x2="444" y2="-183"/>
      <line x1="498" y1="0" x2="480" y2="0"/>
      <line x1="460" y1="190" x2="444" y2="183"/>
      <line x1="352" y1="352" x2="340" y2="340"/>
      <line x1="190" y1="460" x2="183" y2="444"/>
      <line x1="0" y1="498" x2="0" y2="480"/>
      <line x1="-190" y1="460" x2="-183" y2="444"/>
      <line x1="-352" y1="352" x2="-340" y2="340"/>
      <line x1="-460" y1="190" x2="-444" y2="183"/>
      <line x1="-498" y1="0" x2="-480" y2="0"/>
      <line x1="-460" y1="-190" x2="-444" y2="-183"/>
      <line x1="-352" y1="-352" x2="-340" y2="-340"/>
      <line x1="-190" y1="-460" x2="-183" y2="-444"/>
    </g>
    <animateTransform attributeName="transform" type="rotate"
                      values="0 0 0;360 0 0" dur="160s" repeatCount="indefinite"
                      additive="sum"/>
  </g>

  <!-- Halo + soft glow behind compass -->
  <ellipse cx="540" cy="540" rx="340" ry="320" fill="url(#haloAnno)">
    <animate attributeName="rx" values="310;360;310" dur="5.4s" repeatCount="indefinite"
             calcMode="spline" keyTimes="0;0.5;1" keySplines="0.42 0 0.58 1;0.42 0 0.58 1"/>
    <animate attributeName="ry" values="296;340;296" dur="5.4s" repeatCount="indefinite"
             calcMode="spline" keyTimes="0;0.5;1" keySplines="0.42 0 0.58 1;0.42 0 0.58 1"/>
  </ellipse>
  <circle cx="540" cy="540" r="190" fill="#00AAA6" opacity="0.12" filter="url(#softGlow13)">
    <animate attributeName="opacity" values="0.08;0.20;0.08" dur="5.4s" repeatCount="indefinite"
             calcMode="spline" keyTimes="0;0.5;1" keySplines="0.42 0 0.58 1;0.42 0 0.58 1"/>
  </circle>

  <!-- 8 windrose Bezier rays, counter-rotating -->
  <g transform="translate(540 540)">
    <g>
      <animateTransform attributeName="transform" type="rotate"
                        values="0;-360" dur="220s" repeatCount="indefinite"/>
      <path d="M 0 -180 Q 8 -300 0 -440" fill="none" stroke="url(#rayAnno)" stroke-width="5" stroke-linecap="round"/>
      <path d="M 180 0 Q 300 -8 440 0" fill="none" stroke="url(#rayAnno)" stroke-width="5" stroke-linecap="round"/>
      <path d="M 0 180 Q -8 300 0 440" fill="none" stroke="url(#rayAnno)" stroke-width="5" stroke-linecap="round"/>
      <path d="M -180 0 Q -300 8 -440 0" fill="none" stroke="url(#rayAnno)" stroke-width="5" stroke-linecap="round"/>
      <path d="M 130 -130 Q 220 -200 300 -300" fill="none" stroke="url(#rayAnno)" stroke-width="3" stroke-linecap="round"/>
      <path d="M 130 130 Q 220 200 300 300" fill="none" stroke="url(#rayAnno)" stroke-width="3" stroke-linecap="round"/>
      <path d="M -130 130 Q -220 200 -300 300" fill="none" stroke="url(#rayAnno)" stroke-width="3" stroke-linecap="round"/>
      <path d="M -130 -130 Q -220 -200 -300 -300" fill="none" stroke="url(#rayAnno)" stroke-width="3" stroke-linecap="round"/>
    </g>
  </g>

  <!-- Central compass (hero, asymmetric, breathing) -->
  <g transform="translate(540 540)">
    <ellipse cx="0" cy="180" rx="170" ry="22" fill="#1A1614" opacity="0.26" filter="url(#contactBlur13)"/>
    <g>
      <animateTransform attributeName="transform" type="scale"
                        values="1 1;1.025 1.025;1 1" dur="5.4s" repeatCount="indefinite"
                        calcMode="spline" keyTimes="0;0.5;1" keySplines="0.42 0 0.58 1;0.42 0 0.58 1"
                        additive="sum"/>
      <g transform="rotate(-3)">
        <circle r="172" fill="url(#caseAnno)" stroke="#0A0706" stroke-width="5"/>
        <circle r="158" fill="none" stroke="#0A0706" stroke-width="1.6" opacity="0.55"/>
        <circle r="152" fill="none" stroke="#0A0706" stroke-width="1" stroke-dasharray="2,5" opacity="0.4"/>
        <circle r="138" fill="url(#faceAnno)" stroke="#0A0706" stroke-width="3"/>
        <g stroke="#0A0706" stroke-width="2.4" stroke-linecap="round">
          <line x1="0" y1="-138" x2="0" y2="-118"/>
          <line x1="70" y1="-118" x2="60" y2="-104"/>
          <line x1="118" y1="-68" x2="104" y2="-60"/>
          <line x1="138" y1="0" x2="118" y2="0"/>
          <line x1="118" y1="68" x2="104" y2="60"/>
          <line x1="70" y1="118" x2="60" y2="104"/>
          <line x1="0" y1="138" x2="0" y2="118"/>
          <line x1="-70" y1="118" x2="-60" y2="104"/>
          <line x1="-118" y1="68" x2="-104" y2="60"/>
          <line x1="-138" y1="0" x2="-118" y2="0"/>
          <line x1="-118" y1="-68" x2="-104" y2="-60"/>
          <line x1="-70" y1="-118" x2="-60" y2="-104"/>
        </g>
        <path d="M -120 -90 Q -80 -150 0 -158" fill="none"
              stroke="#FFE3C2" stroke-width="3.2" stroke-linecap="round" opacity="0.85"/>
        <circle cx="-92" cy="-108" r="6" fill="#FFF" opacity="0.9"/>
        <circle cx="-66" cy="-130" r="2.4" fill="#FFF" opacity="0.7"/>
        <g>
          <path d="M 0 -116 L 16 0 L 0 14 L -16 0 Z" fill="url(#needleHotAnno)" stroke="#0A0706" stroke-width="2" stroke-linejoin="round"/>
          <path d="M 0 14 L 16 0 L 0 116 L -16 0 Z" fill="url(#needleDarkAnno)" stroke="#0A0706" stroke-width="2" stroke-linejoin="round"/>
          <animateTransform attributeName="transform" type="rotate"
                            values="-3;3;-3" dur="5s" repeatCount="indefinite"
                            calcMode="spline" keyTimes="0;0.5;1" keySplines="0.42 0 0.58 1;0.42 0 0.58 1"/>
        </g>
        <circle r="10" fill="#0A0706"/>
        <circle r="4" fill="#FFE3C2" opacity="0.6"/>
      </g>
    </g>
  </g>

  <rect width="1080" height="1080" fill="url(#vignette13)" pointer-events="none"/>
</svg>
